/* XPM */
static char *result[] = {
/* columns rows colors chars-per-pixel */
"50 50 186 2 ",
"   c #2A2A29",
".  c #312F2D",
"X  c #33322F",
"o  c #363431",
"O  c #3B3532",
"+  c #3D3833",
"@  c #3C3C39",
"#  c #453D34",
"$  c #4B3C36",
"%  c #4C3E3A",
"&  c #523D37",
"*  c #583F38",
"=  c #613A3B",
"-  c #6B3B3B",
";  c #4D4036",
":  c #47413A",
">  c #4C443A",
",  c #524337",
"<  c #534339",
"1  c #5B4139",
"2  c #554B3E",
"3  c #62473E",
"4  c #664E3C",
"5  c #684F3C",
"6  c #71413E",
"7  c #7D433E",
"8  c #6D523D",
"9  c #75563F",
"0  c #7A573E",
"q  c #7E5D3F",
"w  c #653E46",
"e  c #574E43",
"r  c #5E5243",
"t  c #6A4042",
"y  c #784741",
"u  c #734C41",
"i  c #635645",
"p  c #6B5443",
"a  c #6A5A46",
"s  c #785740",
"d  c #735E4A",
"f  c #74614C",
"g  c #7D654B",
"h  c #786C5F",
"j  c #88453D",
"k  c #964C3F",
"l  c #9D4C3E",
"z  c #9F553F",
"x  c #9A5A3D",
"c  c #A24C3D",
"v  c #AC4F3C",
"b  c #A5533C",
"n  c #AB543C",
"m  c #AE5D3F",
"M  c #B3553C",
"N  c #BD563E",
"B  c #B45B3D",
"V  c #BA5D3D",
"C  c #A7623E",
"Z  c #B6643F",
"A  c #BD623D",
"S  c #C25D3E",
"D  c #C4663E",
"F  c #CC6A3E",
"G  c #D06F3E",
"H  c #D86F3D",
"J  c #D7703E",
"K  c #874540",
"L  c #834841",
"P  c #8B4941",
"I  c #924C42",
"U  c #9E4C40",
"Y  c #855D42",
"T  c #8F5845",
"R  c #955544",
"E  c #9E5345",
"W  c #9B5A45",
"Q  c #975D4D",
"!  c #A64F4C",
"~  c #A35241",
"^  c #A85443",
"/  c #A45B44",
"(  c #AD5C45",
")  c #A75B48",
"_  c #AD5B49",
"`  c #B05442",
"'  c #B45D45",
"]  c #BB5C44",
"[  c #BC5E4A",
"{  c #8D6443",
"}  c #87684A",
"|  c #936543",
" . c #9B6643",
".. c #8D7154",
"X. c #927350",
"o. c #9A7754",
"O. c #9C7953",
"+. c #A46B45",
"@. c #B36341",
"#. c #B86747",
"$. c #BA6C45",
"%. c #AA724A",
"&. c #B57444",
"*. c #BC7544",
"=. c #BC7749",
"-. c #A57B55",
";. c #C25C44",
":. c #C85F45",
">. c #D85F43",
",. c #C56145",
"<. c #CD6344",
"1. c #C96C43",
"2. c #C36149",
"3. c #CF6248",
"4. c #D16344",
"5. c #D36C43",
"6. c #DB6C42",
"7. c #D06348",
"8. c #D26A49",
"9. c #C37344",
"0. c #C67844",
"q. c #CA7A44",
"w. c #C5734C",
"e. c #C9744A",
"r. c #D57344",
"t. c #D97343",
"y. c #D57C46",
"u. c #DD7C43",
"i. c #D97249",
"p. c #DF7C4C",
"a. c #CD7B50",
"s. c #E27443",
"d. c #E37C43",
"f. c #EB7C44",
"g. c #E17E4F",
"h. c #EE7E48",
"j. c #ED843E",
"k. c #F5873E",
"l. c #F9873E",
"z. c #F7893F",
"x. c #F8883E",
"c. c #A6835E",
"v. c #AE865D",
"b. c #B78F5F",
"n. c #AA8A67",
"m. c #B39370",
"M. c #D78146",
"N. c #DD8244",
"B. c #DE8149",
"V. c #C28E5B",
"C. c #D98756",
"Z. c #DE8B56",
"A. c #C5925D",
"S. c #CB945B",
"D. c #D49B5A",
"F. c #DD9C5E",
"G. c #E48343",
"H. c #EC8343",
"J. c #E1834E",
"K. c #F48543",
"L. c #F88742",
"P. c #F68841",
"I. c #F88841",
"U. c #E98E54",
"Y. c #E29257",
"T. c #ED9456",
"R. c #ED9358",
"E. c #E29C5E",
"W. c #ED9D5C",
"Q. c #F39B56",
"!. c #F49C5D",
"~. c #DEA15F",
"^. c #E5A45B",
"/. c #E9A35F",
"(. c #F3A25D",
"). c #F5AA5E",
"_. c #FEAF5F",
"`. c #FEB05E",
"'. c #D39B60",
"]. c #E3A262",
"[. c #EFA560",
"{. c #EDAB66",
"}. c #F5A161",
"|. c #F5A962",
" X c #FEAE61",
".X c #FEB061",
/* pixels */
"                              + } %.i o                     @ h m.n.e .                             ",
"                            < +.G.k.y.+.5 O             X r n.]. X|.A.f @                           ",
"                        o 9 q.P.L.P.L.P.G.%.p +     + f v.]..X.X`..X_.].o.>                         ",
"                      > +.G.P.P.I.L.I.I.I.z.G.*.q a b.{..X X.X X_._._._.{.b.a o                     ",
"                  o 0 q.L.I.I.I.I.I.P.P.P.z.z.G.1.e.R._..X.X X_._. X X X X`.^.O.#                   ",
"                > +.G.P.P.P.I.I.I.P.P.L.L.L.J B c ] 6.U.|..X X.X X X`._. X X X|.V.a X               ",
"            o 0 q.K.P.P.x.I.L.P.x.I.I.L.H.F c l c S 7.F g.!. X_. X`..X X X X X X_.~.O.>             ",
"          < +.G.l.P.x.x.L.z.I.P.x.L.P.u.V l l l c ;.<.>.>.5.U. X.X_. X X X X_._. X_.).A.a X         ",
"      o 9 q.K.P.P.I.P.I.I.I.L.P.L.H.F n l U U U c ;.4.4.4.<.4.p.!. X X X X X_. X X`. X_.E.O.>       ",
"    < +.H.P.P.P.P.P.I.I.I.P.P.P.s.V c U U l U l c ;.4.<.<.4.4.4.6.U. X X X X X_._. X_._._.).A.i X   ",
"O 9 q.K.P.P.I.P.I.P.I.x.I.I.K.F n l U k l l U U c ;.<.<.4.4.<.4.4.5.g.(. X X X X X_._._. X.X_.^.X.: ",
"a y.z.K.z.z.x.I.L.P.I.I.P.u.A c U l l l U l U l c ;.7.>.>.F 4.4.4.7.4.5.R. X X_. X X_._.`.`.`._./.c.",
": x *.j.x.K.P.P.P.z.z.K.5.b l l l l U l U U U l c ;.4.4.<.4.<.4.<.4.4.4.5.J.(. X`._.`._. X X).D.O.i ",
"    @ 9 *.H.I.I.x.P.u.A b k l l l l U U U U U l c ;.4.<.<.4.7.4.4.4.4.7.4.4.i.T._._. X).).D.X.2 X   ",
"        # q *.G.k.5.n l l l l l l U U U l U U l c ;.4.4.4.4.4.4.7.4.4.<.4.>.4.4.J.(.[.S...> X       ",
"          . : -.B.b k U l l l l U ~ l U U U U l c ;.4.4.4.4.7.4.4.4.4.4.4.7.4.7.4.d.V.r             ",
"          . e A.(.a.~ U U U l l l l c U U U U l c ;.4.4.7.4.4.7.4.<.4.4.4.4.>.7.6.G.G.s X           ",
"        . 2 b.).`..XY.@.c l l l l l U U U U U l c ;.4.4.4.4.4.4.4.4.7.4.<.>.6.s.K.K.L.B.s .         ",
"        i S._.`..X`..X}.a.b l l l U U U c U U U c ;.7.<.4.4.4.4.4.7.4.7.F 6.h.L.x.z.L.P.N.q .       ",
"      p S._. X`..X.X X X XY.@.c l l U l U U U l c ;.4.4.4.4.<.4.<.>.4.5.s.K.L.L.L.L.L.l.x.N.Y X     ",
"    d D._. X.X_.`. X X_._..X(.e.c l l l l U U l c ] <.>.4.4.4.4.7.4.6.f.P.P.I.I.P.I.I.x.P.x.G.Y X   ",
"X d '.|._._._. X X`.`. X X_._.|.Y.@.l ~ l l l l c ;.4.<.<.4.4.4.8.s.L.L.L.I.I.I.x.z.P.I.I.P.L.G.{ + ",
"g F.`. X X_._._. X`. X`. X X_._. X!.w.b c l l l c ;.4.4.4.4.F 6.H.L.P.L.P.P.I.I.I.I.I.P.I.P.P.L.G.+.",
"..^. X_._. X X_. X X X_..X X X X_. X|.Z.` l l l c ;.<.>.F 4.s.K.L.P.L.L.L.L.I.z.I.P.I.x.I.x.x.P.G.=.",
"+ f S.)._. X X X_. X X_.`. X_._._. X`. XW.w.b l c ;.7.4.H f.L.L.I.z.I.I.I.I.I.I.z.P.P.z.k.L.k.u.| ; ",
"    > O./. X X X_._._. X`. X X_..X X X_. X|.C.( c ;.4.s.h.L.x.P.z.P.I.I.z.I.I.I.I.z.z.P.K.G.&.4 X   ",
"      o d A.|. X.X`._._._. X`..X X_. X_. X_..XW.e.5.f.K.L.I.I.I.I.I.I.I.I.I.I.I.I.P.P.P.M.| #       ",
"          2 -.]._..X X X X.X X X X_._._._.`..X.XQ.h.K.k.I.I.I.x.I.I.I.P.I.I.I.I.I.z.z.Z 4 X         ",
"            o g E..X.X_. X X_._._..X X X_..X XQ.G.J J K.I.P.L.P.I.I.I.I.I.P.P.I.z.H. .#             ",
"              + #.T. X X.X.X_..X`. X_..X X XT.d.K.6.S F K.P.L.P.z.I.I.I.L.I.x.P.G.Z &               ",
"              O _ 5.J.(._._..X X_. X_.`. XR.t.H.L.6.3.M D K.I.I.I.z.P.z.z.P.K.F n k $               ",
"              O _ >.4.i.U. X X`. X X_. XR.5.f.K.L.6.7.;.v D H.x.I.P.z.z.K.d.S c l k $               ",
"              O m F 4.<.5.J.(..X_._. XU.5.6.K.I.L.6.4.4.] c D K.k.I.I.H.F n l k l k $               ",
"              O ,.6.3.3.4.<.i.T. X_.U.4.5.K.I.I.K.6.7.<.:.` c V f.P.d.A c U U U v ` 1               ",
"              O 0.G.+.! <.<.4.5.g.g.4.F f.l.k.I.K.6.7.4.<.;.c c B ,.n l U l c M ;.2.1             . ",
"              O G K.z - ^ 4.7.<.4.4.>.s.K.l.l.L.K.H 7.<.<.>.] l k l U U l c N :.7.,.1               ",
"              O 0.I.B.T R i.] <.4.4.5.h.z.I.I.I.K.6.7.7.4.4.#.I j l l c M ;.>.:.4.,.*               ",
"              # 0.x.r.@.y.d.E ] <.<.s.L.z.P.I.I.K.6.7.<.7.;.P = - k b N :.7.F <.4.:.*               ",
"              o +.z.G.r.L.K.Z $.z t.H.z.z.I.P.I.K.6.>.<.4.k 7 L w 7 ] 7.7.4.4.4.>.' $               ",
"                , &.H.L.k.G.&.y.C G.1.0.P.z.I.I.K.6.3.7.:.j R ;.L - ] 4.4.7.4.<.' 3                 ",
"                  : { N.k.G.A Z 9.H./ t 9.x.I.I.K.6.4.7.[ E 2.<.R j 2.3.<.>.:.R %                   ",
"                    X 4 &.j.K.9.Z H.$.t @.x.z.I.K.6.4.<.P I <.E 6 ~ 7.>.<.' 8 O                     ",
"                        # | B.P.B.j.B.W r.I.I.I.k.6.4.] w I ^ 6 L ;.3.:.R &                         ",
"                          X 8 *.H.I.u.Z H.I.I.I.K.6.7.' - - L ^ ,.<.#.u O                           ",
"                              #  .N.j.N.H.I.I.I.f.6.7.:.K y [ <.,.E 1                               ",
"                                X 8 0.K.P.I.L.I.k.6.>.F :.:.<.] 0 O                                 ",
"                                    ;  .G.x.L.I.h.6.<.<.4.<.W 1           .                         ",
"                                      X 9 q.l.L.h.6.F :.#.L +                                       ",
"                                          , +.j.L.H :.) 1 o                                         ",
"                                            O } B.8.Q %                                             "
};
