/* XPM */
static char *result[] = {
/* columns rows colors chars-per-pixel */
"120 120 78 1 ",
"  c #040404",
". c #0C0C0C",
"X c #10100F",
"o c #0F1010",
"O c #141414",
"+ c #161718",
"@ c #1B1B1B",
"# c #20201F",
"$ c #1F2121",
"% c #252524",
"& c #282827",
"* c #252728",
"= c #27292A",
"- c #2A2A29",
"; c #2D2F30",
": c #2D3030",
"> c #323536",
", c #343738",
"< c #353839",
"1 c #393C3D",
"2 c #3B3E40",
"3 c #3E4242",
"4 c #414546",
"5 c #434748",
"6 c #464A4C",
"7 c #484C4E",
"8 c #4A4F50",
"9 c #4E5354",
"0 c #515657",
"q c #525658",
"w c #565B5C",
"e c #585D5F",
"r c #585D60",
"t c #5B6162",
"y c #606667",
"u c #616769",
"i c #646A6C",
"p c #676D70",
"a c #686F71",
"s c #6B7274",
"d c #6F7678",
"f c #70777A",
"g c #72797C",
"h c #767D80",
"j c #787F81",
"k c #7B8285",
"l c #7D8588",
"z c #838B8E",
"x c #858D91",
"c c #8A9295",
"v c #8D9599",
"b c #8F989B",
"n c #919B9E",
"m c #959EA2",
"M c #97A0A4",
"N c #98A1A5",
"B c #9CA5AA",
"V c #9FA9AE",
"C c #A0AAAF",
"Z c #A4AEB2",
"A c #A6B0B5",
"S c #A8B2B6",
"D c #ACB6BB",
"F c #AFB9BE",
"G c #B2BDC2",
"H c #B7C2C7",
"J c #B9C4C9",
"K c #BECACF",
"L c #BFCBD0",
"P c #C1CDD2",
"I c #C5D1D6",
"U c #C6D3D8",
"Y c #CAD7DC",
"T c #CDDADF",
"R c #CEDBE0",
"E c #D1DEE4",
"W c #D4E1E7",
"Q c #D5E2E8",
/* pixels */
"------------------------------------------------------------------------------------------------------------------------",
"--------------------------------------------&-------------&-----------------------------&-------------------------------",
"------------------------------------------------------------------------------------------------------------------------",
"------------------------------------------------------------------------------------------------------------------------",
"------------------------------------------------------------------------------------------------------------------------",
"------------------------------------------------------------------------------------------------------------------------",
"------------------------------------------------------------------------------------------------------------------------",
"------------------------------------------------------------------------------------------------------------------------",
"------------------------------------------------------------------------------------------------------------------------",
"------------------------------------------------------------------------------------------------------------------------",
"-------------------------------------------------------------------------------------------------------------&----------",
"------------------------------------------------------------------------------------------------------------------------",
"------------------------------------------------------------------------------------------------------------------------",
"------------------------------------------------------------------------------------------------------------------------",
"------------------------------------------------------------------------------------------------------------------------",
"------------------------------------------------------------------------------------------------------------------------",
"---------&--------------------------------------------------------------------------------------------------------------",
"------------------------------------------------------------------------------------------------------------------------",
"-----------------------------------------------------------------------------------&----------------------------&-------",
"------------------------------------------------------------------------------------------------------------------------",
"------------------------------------------------------------------------------------------------------------------------",
"--------------------------------------------------------------------------------------------&---------------------------",
"----------------------------------------%%%%%-----------------------------&&&%%&&&--------------------------------------",
"--------------------------------------%%##@#%&----------------------------&%#@@##&--------------------------------------",
"--------------------------------------&#@XO@#&----------------------------&#+OX+%&--------------------------------------",
"--------------------------------------%@O..X@%-------------------------&--%@O..O@&--------------------------------------",
"------------------------------------&%%##@@##%%&&&-------------&------&&&%%##@@##&&&&-----------------------------------",
"---------------&------------------&####-<44<-%@##&--------------------&%#@%-<44<-#@##&&---------------------------------",
"--------------&&------------------%#@X#1qddq,#O@#&&-------------------&#@O#<qddq<#O@#&&---------&-----------------------",
"--------------&-------------------%#X.@4dCCd4@.O#&--------------------%@O @5dCCd4@.X#%----------------------------------",
"----------------------------------%@X @6jFFz0&+@##%##%&#%##&%#%%%&%%%%%@@+-qzFFk6@ X@%----------------------------------",
"----------------------------------%@X +4dZDci5,-%#@#@@@@@#@@@@@@@+@@+@#&->5pxDZd4+ X@%-------------------------&--------",
"----------------------------------%@X +3pmZbkiq2;@XXXXXXXXXXXOXXXXXXXX@-3qijbZmp2+ X@%----------------------------------",
"----------------------------------#@X O1ycCnbzfq>+      .             +>qgxvmBcy1O X@%-----&---------&&-----------------",
"----------------------------------%@X O>wkbnmNxu4%+OO+OOOOOO+O+O++++++%4ucmmnvjw,O X@%----------------&-----------------",
"----------------------------------%@X O;7plzvnvfe4<<<<<<<<<<<<<<,,,,,,4rgcmvzza7;o o@%----------------------------------",
"----------------------------------%@X O&3wsjxnnzfurtttrtrttrttttrrrtrrugzvnxjae3&X X@%----------------------------------",
"---------------------------------&%@X X#>7tslvmnvxzzzzzzzzzzzzzzzzxzxzxvmmvlst6>#X X@#----------------------------------",
"----------------------------------%@X X#>7eslbMBBCCVCVVVCCVVCVCCCCVCZCCBmmvlst7>$X X@%----------------------------------",
"----------------------------------%@X X%2eskznMCSDFFFFFFFFFFFFFFFFDFFFDZCCmxjae3*O X@%----------------------------------",
"-&--------------------------------%@X O;7plzvmBAGJPPPPPPPPPPJPPJKKKPKKJGZBmvzza6;O .+&----------------------------------",
"----------------------------------&+X O,wkbnmMCDGUYEYRYEYYTRTTTTTETTTTUJDCmmnnje>O o@%----------------------------------",
"----------------------------------%+X O<tzNCCBZFIRQQEEQQEQETIJJPPTEEEEEPGACBBmxr,O o+&-------------&----------&---------",
"----------------------------------%@X O<tzNCSDGPUEQQQEQQEQTGBxxmZGPITEEPPGDACBxt,+ o@%----------------------------------",
"----------------------------------%+X +<tzBZFJPUYEQQQQQQQEPBkewsxZGKPEEEPPJFZVzr<+ X@%----------------------------------",
"----------------------------------&@X O<tzCDJUTEEEQQQQQQQEJce;-7avAGPEQEEEIJDCzr,+ .@%----------------------------------",
"------------------------------&&&%#+X O<tzCDJUREEEQQQQEYUPCh9;&2rhvCHTEEETUJDCxt,+ .+#%&&-------------------------------",
"------------------------------&%#@OX. O<tzBZFJPUEEQQEEYGVxhat97qqracZPERPPJGZBxt,+ .X+@##-------------------------------",
"------------------------------&#+O..  O,txBCZDGPYEEEQQUCke9tahhuq27smLEUKGGZZNxr,O  .XX@#&------------------------------",
"------------------------------%@O.    O,txmBBCZGPRQQEEJce;-qhCCg8*=rxJELGACmNNxr,O    XO@%------------------------------",
"------------------------------%@O.    O>wkbvmmCDJYERYYGk6+@7lJGz7@@6jGIJGVmmmvjw>+    XX@%------------------------------",
"------------------------------%#+X.   O;7plccmBAFGPPPPCf4+@7lJGl7@+3hCGGCVmvxla8;X  .XX@#&------------------------------",
"-----------&------------------&%#@+X. X*2esjxmBCAFFFFFmp2+@7lJJl7@+2amGACmmzhsw2&o .X@###&------------------------------",
"------------------------------&&&%#+. X#,7rslvmBBCCCCCxy1+@7lGGl6@O2ucmBVmmlsr8>#X .O#%%--------------------------------",
"---&--------------------------&&&%#+. X#,7tslvNNmMBNBVcy1O@7lJJl8@+2rvVBVmmjsr7>#. .@#%-&-------------------------------",
"------------------------------&%#@+X. X%3esgxmNNMMBCADmp2+@7lGJl6@+2amDACmmxhsr2*X .XO@##&--------------&---------------",
"------------------------------&#@X..  X-7plzcmmNmmBAGGZh4+@6lGJz6@+4dZJGACnvzza7;O   .O@#%------------------------------",
"------------------------------%@O.    O>rkbmmmBmBmCDGIGj7@@7lGGl6@@6hGUJDCmmbbke>O    .O#%------------------------------",
"------------------------------%@X.    +,tzBmmmBBCCAGIEGz7@@7zJGz8@@6lJRPGACBBmxr,+     O##------------------------------",
"-------&----------------------&#@O..  +,txmBBmBCADGPUEGl7@@7lGGz6@@8lGEUPGDACBxr,O  ..O+#%------------------------------",
"------------------------------&%#@+o  O,tzmmmmBAGGIYEEGz6@@7lGPl6@@8zHERPPJFABzt,O .X+@#%&------------------------------",
"------------------------------&&&%#OX +,rzmBBmCDGUREQQGx7@@7lGGl8@@6kJEEERUJDBzr,O .+#%%%-------------------------------",
"------------------------------&&&%%#@+%5ivVVCCAGIEEEQQGl7@@7zGGz6@@6kHQQQQTPFCxu4%@@#%%&--------------------------------",
"------------------------------&%#@#*->5ylBGDGGGPIEQQQQGj7@@7zJGl6@@6zHQQQEYPFCvgr4>-%#@#%-------------------------------",
"------------------------------&#+X@;30ilNFPKKKPUYWQQQQHl7@@7lHHl7@@7lHEQQQRKGVnlhpq2;@OO$*------------------------------",
"------------------------------%#O.+,0gvBFITTTTTWWWQWQQHl7@@7lHHl7@@7lHQQQQRKGVmvclhq>+.O@*--------&---------------------",
"----------------------------&&%@X O<ezCFPTQQQQQQWWWWRTFk7@@7lHHl7@@7lHQQQQRKGZVBBBlt<O o@%-----------------------&------",
"-----------------------------&%@X +,tzCFKTQQQQQQWWWYUICf3+@7lHHl7+@7lHQQQQEUKGGCCClr<+ O+%------------------------------",
"------------------------------&@X +<ezVFKTQQQQQQQQRUKFMi3++7lHHl7@@7lHQQQQWRULHGAVxr2O o@%------------------------------",
"------------------------------%@X +<txVFKTQQQQQQQQRLHAcy1+@7lHHl7@@7lHQQQQWEERUJGVxt2O o@%------------------------------",
"------------------------------%+X O<tzVDJUTRWWWQQQYHCvge3$=wxJHl7@@7lHQQQQWEERUHGVlr>O o@%------------------------------",
"-------&----------------------%@X O<tzBAFJIUYWQQQQIAxpe9317sMLHl7@@7lHQQQQERULGGVNlu>O o@%------------------------------",
"----------&-------------------%@X +<txBVADGKUEQQQQLMs7169eaxAIHl7@+7lHQQQQEUKGGACNzt<+ X+%------------------------------",
"------------------------------&+X +<tlBBBVAGLRQQQQJzw=$2qgvCHYHl7@@7lHQQQQELGABBCNzt<+ X@%------------------------------",
"------------------------------%@X O<tzMNNNVFKRQQQQJl7@O1tcAGJYGk3@@7lHQQQWRKGBNNmNzt<O X@%------------------------------",
"------------------------------%+X O<tzNNNNVFKRQQQQHl7@+3pmGGJJCf3+@7lHQQQWRKGCNNNNzt<O X+%------------------------------",
"------------------------------%@X +<txNNNNCFKRWQQQHl7@+4fZJJHGMp3@@3lKQQQQRKGBNNNNzt<+ X@%------------------------------",
"------------------------------#@X O<tlNNNNVFKRWQQQHl7@+6kGUJGAvt2+@8lJQQQQRKGVNNNNzt<O X@%------------------------------",
"------------------------------&@X O<txNNNNVFKRQQQQHl7@@7lHYHVvf9:O@9lHQQQQRKGBMNNNzt<O X+%--------&---------------------",
"------------------------------#@X +<exMNNNVFKRQQQQHl7@@7lHIZxa91$O@3lHQQQQRKGNMMNNzt<O X@%------------------------------",
"------------------------------##o.O<txNNNNCFKRQQWWHl7@+7lHLms8:$+ @7lHQQQQTKFVNMNNzt,+ X@%------------------------------",
"------------------------------#@o O<tlNNNNCFKRQQWWHl7@@7lHJlw=Oo. @7lHQWQQTKFCNMNNzt,+ X@%------------------------------",
"------------------------------&#o o,wkbnnMCSJUREWWHl7+@7kGHk6@ .Xo=wzJWWETUJFVMMnbkq>O X@%&-----------------------------",
"------------------------------#Oo o:8alxvmBSFJLUREHl7$+3dZZg3+.+*:6dmLWTULJFABnvzlp7;O X+%------------------------------",
"------------------------------&#X o=3wsjxnBCSDGKLWHl7@+3pMMp2+o$19axZIEUKGDAVBbzkse3&X X@%------------------------------",
"---------&--------------------#@X X$,6tslbNNBVAGLEHl7@O1tcct1+O:9gcAHYTLHAVBBBblst6>#X X@%------------------------------",
"------------------------------%@X .$:30ijbNNNNCDJUHk8@+1tllt<OO<tzVDJUUJDVMMMNvjiq3;#. X+&------------------------------",
"------------------------------#@X X@:30ijbNNNNBAGJCs3+O1txxt<O+<tzBAFJJFAVNMMMbkiq3;@X X@%------------------------------",
"------------------------------&@X X@:30ikcNNNNBCZDNa3+O,txlt<++<tzBVSDDAVBMMNNvji04:@X X+&------------------------------",
"------------------------------#@X .#:30pkbNMNMMBBVvt1++,tlct<O+2tzNBBVVVBBMMNNbji04:#X X@#------------------------------",
"------------------------------&#X.X$:18tflmmmMNNNNlt2$+,wghw1$$3uxNNNNMMMNNnnbxdr71-@X.X#%&-----------------------------",
"-----------------------------&%#@OO@$-<6tgllcmNNNNca3:$,30w0333tgcNNNNNMNNmvxldt7<-%@+X@#&------------------------------",
"------------------------------&##@@$@@=18taklMNNNNcsw3::>,139wyglbNNMNNNNMnxhst7<%#@@@###&------------------------------",
"---------&----------------------&*#@+oO$<8talmNNNNcht83:*+$2whxvnMNNNNNNMMblst71-OX+@##---------------------------------",
"----------------------------------#@O.o$:16tdlnMmMbki03:$o+<tlNNNNNNMMMMbbzdt71=@X.O@&----------------------------------",
"----------------------------------&$@O+@$=,7tdllcmckp03:@XO<ylNNNNMNNMMcxldt7<-%@+O+#&----------------------------------",
"----------------------------------&%##O##@&,6tsjxnbjp03:$.O<tlBNNNNNNNnzkst8<*#@##@##-----------------------------------",
"----------------------------------&&&&##XXO%<6tslnbji03:#.O<ylNNNNNNNMblse8<*OX+###-------------------------------------",
"--------------------------------------##XXX#-16tdlxgy03:@XO,wjnmMVVCVVnla03:@. X@#--------------------------------------",
"--------------------------------------&##XO#&-<6tdgpt93:@Xo:8alnBSFFFGCzsw3:@X X##--------------------------------------",
"--------------------------------------&%#@@###%<7ttt093:@Xo=3wdlBGKKKLFbgw3:$. o@#--------------------------------------",
"--------------------------------------&&&&#@OXO&<8w9993:@oX$,6ylBJTTTTKMje3:@X o##--------------------------------------",
"------------------------------------------&+X .#:375331=@oo$=10dMJTTTTJMf9<-$X.o#&--------------------------------------",
"------------------------------------------&@X .@:3531>=%@++@*=3yzDKKKLDzy3:$#OO@##--------------------------------------",
"------------------------------------------&@. X#>35<-%@@@@@@#@;9gBFFFFBg9:$@$@@#&---------------#-----------------------",
"------------------------------------------#@X X@-44:%+O+#%#@+X@2tcVVVVvy3@oO@$#&#&--------------:-----------------------",
"-----------------------------------------&&@X.X#-11-@. o@#%@X O>elbvbbjw>O X@&:---&-------------------------------------",
"-----------------------------------------&&#@OO@%-&#O  o@&%@X O;8ajkjjp8:o X@#------------------------------------------",
"------------------------------------------&%#@@@##+OX  X@&&@X X&3wiiiiw3&X X@&------------------------------------------",
"-----------------------------------------&&&&%%@OX.    X+##+O X#>600008>$X X@#------------------------------------------",
"----------------------------------------------%@O.     O@&&@X .@-13333<:#o.O##------------------------------------------",
"---------------------------------------------&&#@OXXXXO@#-#@X  +$-:::::$@+X@#&------------------------------------------",
"------------------------------------&---&-----&&#@@@@@@#%&%@X  XO@@$@$@@@#@##-------------------------------------------",
"--------------&-------------------------------&&&&%&#&%&&&%@X    .ooo.o+###---------------------------------------------",
"------------------------------------------------&---------%@O.        .O##----------------------------------------------",
"------------------------------------------------&---------&#@XXXooXXoXo+#&----------------------------------------------",
"-----&----------------------------------------------------&%#@@@@@@##@@##-----------------------------------------------",
"-------------------------&---------------------------------&&%#%#*###&*&&&----------------------------------------------",
"----------------------------------------------------------------:-----&-------------------------------------------------",
"------------------------------------------------------------------------------------------------------------------------"
};
