/* XPM */
static char *result[] = {
/* columns rows colors chars-per-pixel */
"50 50 75 1 ",
"  c #070707",
". c #0C0C0C",
"X c #121212",
"o c #161718",
"O c #171818",
"+ c #1B1C1B",
"@ c #20201F",
"# c #1E2020",
"$ c #242424",
"% c #282827",
"& c #252728",
"* c #262829",
"= c #2A2A29",
"- c #2C2F30",
"; c #2E3131",
": c #323435",
"> c #343738",
", c #353939",
"< c #3A3D3E",
"1 c #3B3F40",
"2 c #3D4142",
"3 c #404345",
"4 c #434648",
"5 c #45494B",
"6 c #484D4E",
"7 c #494E50",
"8 c #4E5355",
"9 c #505557",
"0 c #515658",
"q c #565B5C",
"w c #585D5E",
"e c #5A5F61",
"r c #5D6365",
"t c #606768",
"y c #646B6D",
"u c #676E70",
"i c #686E71",
"p c #6C7275",
"a c #6F7679",
"s c #70777A",
"d c #737A7D",
"f c #777E81",
"g c #787F82",
"h c #7A8285",
"j c #838B8E",
"k c #868E92",
"l c #879093",
"z c #8A9296",
"x c #8D9599",
"c c #8F989B",
"v c #919A9E",
"b c #949DA1",
"n c #97A0A4",
"m c #99A2A6",
"M c #9CA6AA",
"N c #9FA9AD",
"B c #A0A9AE",
"V c #A3ADB2",
"C c #A7B1B6",
"Z c #A8B2B7",
"A c #ABB5BA",
"S c #AEB9BE",
"D c #B0BABF",
"F c #B2BCC1",
"G c #BBC6CB",
"H c #BDC9CE",
"J c #C2CED3",
"K c #C5D1D6",
"L c #C7D4D9",
"P c #C9D6DB",
"I c #CCD9DE",
"U c #CFDBE1",
"Y c #D1DEE3",
"T c #D3E1E6",
"R c #D5E2E8",
/* pixels */
"==================================================",
"==================================================",
"==================================================",
"==================================================",
"==================================================",
"==================================================",
"==================================================",
"==================================================",
"==================================================",
"===============%$@$*==========%%@$================",
"===============%@X@%=*======%%%@X+================",
"==============$+;5;+$========$+;4;@$==============",
"==============@X6v0+$$$$$$$&%@+0v6X@==============",
"==============@.4bg6#X.XXXX.X@6hb5.@==============",
"==============$.>gvg1$$$@$$$$<gcg>.@==============",
"==============@.$qjcgdddfddddhxjw%.@==============",
"==============@.=tjbAFFFFFFFFZbkt=.@==============",
"==============@.<jbAKYUULGHLUJAbj,.@==============",
"==============@.1zFJYRRYFsfZLUJFx<.@==============",
"=============$O.1xFPYRYFk76fFULFx<.+$=============",
"============$O  1kBFPYJi7ji1jJFBk<  +$============",
"============%+. ;pzVFHZ6:bg$iFBkp; .+=============",
"============%$O.$qgbNVb1:bg$eNbjq$ +@=============",
"============%+. ;pxbbZB61bg&iANzp; .+%============",
"============&o  1kbNCFF9:bg*gJFBk<  O$============",
"============%$O.1xbZHUJ9,bg*gUPFx1XO@=============",
"============%@$>iVFFUYJ9,bg*gUYHvt>@@=%===========",
"============$X$iCLYYRYF8:bg-gUYJBvu$X$============",
"============&.#fFUYRYLB4,bg&gUYUGCd$X=============",
"============$X#aAJYYYFf16Vg&gUYUJZd$X%============",
"============$X$fMAJYUk19kFg&gYYKZBd$.$============",
"===========*$X$fbBHRUf$uFFi&gYYHBbs$X$============",
"=============X@dnNGTUd&dGn8$gUYHMms$X$%===========",
"============$X$dnMHTYh*gZr$OfURHMms$X$%===========",
"============$.@yxMFPIh%sc;X-zIPFMcy#X$============",
"============%Xo5dvBDJd$rh*-aAKFBvs5oX$============",
"============$XX<uvnBSi$wa&<zSFNncu<XX$============",
"============$XX>tlbmmr#0y-4zMMmbzr>oX$============",
"============%@+@<yjnbp,>20abnnbky<#O@%============",
"============%=@o#1ylvd6@*abnbbzy1#X$%=============",
"==============%@+O<yjd6+$sbbbxy1++$%==============",
"================@O$<yy5+@rvAFbr-.O%===============",
"=================@oO362@O1gGIZe=XO================",
"=================$XX>,$++@qBFc1++@%===============",
"=================$Oo-$.O@.<gki@X$%%===============",
"==================$@o. O@.$7e4OX$%================",
"===================@oXX@+.o%=%O+%=================",
"====================$$$%$. ..X@%%=================",
"========================$+OoO+$===================",
"============================%=%==================="
};
