/* XPM */
static char *result[] = {
/* columns rows colors chars-per-pixel */
"50 50 122 2 ",
"   c #040404",
".  c #0D0D0D",
"X  c #10100F",
"o  c #131313",
"O  c #181817",
"+  c #171718",
"@  c #171818",
"#  c #1B1C1C",
"$  c #20201F",
"%  c #1E1F20",
"&  c #1F2020",
"*  c #242424",
"=  c #282827",
"-  c #262728",
";  c #262829",
":  c #2A2A29",
">  c #2E2F30",
",  c #2E3031",
"<  c #323535",
"1  c #343738",
"2  c #373A3A",
"3  c #3A3D3E",
"4  c #4A3B37",
"5  c #69483F",
"6  c #3B3F40",
"7  c #3E4143",
"8  c #304C77",
"9  c #414546",
"0  c #434748",
"q  c #454A4B",
"w  c #484D4E",
"e  c #4B4F51",
"r  c #4D5253",
"t  c #505556",
"y  c #525758",
"u  c #555A5C",
"i  c #585E5F",
"p  c #595F61",
"a  c #5C6264",
"s  c #6C6565",
"d  c #606668",
"f  c #646A6D",
"g  c #7B716F",
"h  c #676D70",
"j  c #696F71",
"k  c #6C7275",
"l  c #70777A",
"z  c #737A7D",
"x  c #933B2B",
"c  c #A33225",
"v  c #A13D31",
"b  c #BE3632",
"n  c #BD403B",
"m  c #8B594E",
"M  c #9A5A4F",
"N  c #A05D4E",
"B  c #B55F5B",
"V  c #AD6E62",
"C  c #C1797B",
"Z  c #CD7A7A",
"A  c #D27476",
"S  c #385F8D",
"D  c #44638C",
"F  c #51688B",
"G  c #767E81",
"H  c #787F83",
"J  c #6A7E9C",
"K  c #7B8285",
"L  c #7E8689",
"P  c #7F888A",
"I  c #558AB9",
"U  c #7588A3",
"Y  c #7595B5",
"T  c #81898C",
"R  c #858E91",
"E  c #8A9296",
"W  c #8D969A",
"Q  c #8F989C",
"!  c #929B9E",
"~  c #B89088",
"^  c #A49491",
"/  c #A59A97",
"(  c #AF9995",
")  c #8396AE",
"_  c #959EA2",
"`  c #A39FA2",
"'  c #97A0A4",
"]  c #99A2A6",
"[  c #9CA6AA",
"{  c #9EA8AC",
"}  c #A1AAAE",
"|  c #BBAFAD",
" . c #A4AEB2",
".. c #A7B1B5",
"X. c #A8B2B7",
"o. c #ABB5BA",
"O. c #AEB9BD",
"+. c #B3B1B2",
"@. c #C99290",
"#. c #8AB7D7",
"$. c #9BBDD6",
"%. c #ABBBCA",
"&. c #B3BEC2",
"*. c #D4BCC0",
"=. c #B7C2C7",
"-. c #BCC1C3",
";. c #B7C3C8",
":. c #BAC6CB",
">. c #BDC9CE",
",. c #BDCAD2",
"<. c #CFC2C7",
"1. c #C1C9CE",
"2. c #C2CED3",
"3. c #C5D1D6",
"4. c #C6D3DA",
"5. c #C9D6DB",
"6. c #CCD9DE",
"7. c #D5D8DD",
"8. c #CEDCE2",
"9. c #D1DEE4",
"0. c #D3E1E7",
"q. c #D5E2E8",
/* pixels */
": : : : : : : : : : : : : : : : : : : : : : : : : : : : : : : : : : : : : : : : : : : : : : : : : : ",
": : : : : : : : : : : : : : : : : : : : : : : : : : : : : : : : : : : : : : : : : : : : : : : : : : ",
": : : : : : : : : : : : : : : : : : : : : : : : : : : : : : : : : : : : : : : : : : : : > : : : : : ",
": : : : : : : : : : : : : : : : : : : : : : : : : : : : : : : : : : : : : : : : : : : : : : : : : : ",
": : : : : : : : : : : : : : : : : : : : : : : : : : : : : : : : : : : : : : : : : : : : : : : : : : ",
": : : = : : = : : : : : : : : : : : : : : : : : : : : : : : : : : : : : : : : : : : : : : : : : : : ",
": : = # # * : : : : : : : : : : : : : : : : : : : : : : : : : : : : : : : : : : : : : : : : : : : : ",
"= = * # + * = : : : : : : : : : : : : : : : : : : : : : : : : : : : : : : : : : : : : : : : : : : : ",
": $ # 3 0 & # = : : : : : : : : : : : : : : : : : : : : : : : : : : : : : : : : : : : : : : : : : : ",
"= O + a G - o * : : : : : : : : : : : : : : : : : : : : : : : : : = : : : : : : : : : : : : : : : : ",
"= O + l Q > . * : : : : : : : : : : : : : : : : : : : : : : > : = = = = : = : : : : : : : : : : : : ",
"= + + H ] > X = : : : : : : : : : : : : : : : : : : : : : : : : ; $ O @ $ = : : : : : : : : : : : : ",
"= O @ z ] 2 + * = = : : : : : : : : : : : : : : : : : : : : : = * # # # $ * ; : : = = * * ; : : : : ",
"= O o f _ k 3 # # : : : : : : : : : : : : : : : : : : : : : : $ # r z G r # $ = = $ X X O * : : : : ",
"= # + q K ! a o # : : : : : : : : : : : : : : : : : : : : = $ = 3 T -.| g : $ $ $ O O o o $ * ; : : ",
"= = $ * q _ z # O = = : : : : : : : : : : : : : : : : : : * o 9 ! } ^ N m s < X . $ 1 2 > @ O - : : ",
"= : * X > E R 0 - # * : : : : : : : : : : : : : : : : : : $ . t &.( M c v m 4 $ $ > 9 w 2 + X * : : ",
": : * o * j W T 9 # $ : : : : : : : : : : : : : : : : = = $ + y +.V c b b x 5 t e t t e 2 o X - : : ",
": : : % $ 1 j ..T w & # = : : : : : : : : : : = : : : = @ @ = a ` B n Z @.~ / _ ] W z p 2 o X ; : : ",
": : = : & + q W _ H 6 $ $ $ $ $ $ $ $ $ $ $ $ * $ $ $ # . @ 0 K ` C A *.9.9.9.9.7.1.} G q @ X * : : ",
": : : : = * - 1 j E G w + . . . X X X . X . . X . . . .   & h { 2.*.<.9.q.q.q.9.0.8.,.{ j & X * : : ",
": : : : : = $ O 6 f R l 0 6 3 3 9 t t t t t t t r 7 3 1 @ : R ,.9.q.q.q.q.q.q.9.q.q.9.,.R : X - : : ",
": : : : : = - * + > G _ E E W Q } ;.1.>.>.>.>.1.&.' W P 7 3 { 0.9.q.9.9.8.8.4.8.9.q.q.9.{ 2 @ & : : ",
": : : : : = = - X * l _ [ O.:.,.3.9.q.q.q.q.q.q.8.2.>.&.P z =.q.q.q.q.8.%.U J ) ,.q.q.q.;.l 6 # $ : ",
": : : : : : : : X * l ' { >.9.9.0.0.q.q.q.q.q.q.0.0.0.6.O. .3.q.q.q.q.9.#.D 8 F %.q.q.q.4.{ u o O = ",
": : : : : : = * X * l _ ] >.q.q.q.q.q.q.q.q.q.q.q.q.q.8.&...4.9.0.q.q.9.$.I S F %.9.8.8.2.} u o O = ",
": : : : : : : = # $ w l _ >.9.q.q.q.q.q.q.q.q.q.q.q.q.9.>.&.:.>.1.5.q.q.,.#.Y Y ,.O.T G L E i o O = ",
": : : : : : : = = $ # 9 Q :.8.9.q.q.q.q.q.q.q.q.q.q.q.0.9.,.[ ! } ,.9.9.8.8.8.,.8.E 1 * 2 k r + O = ",
": : : : : : : : = $ . 2 E ..;.6.q.q.q.q.q.q.q.q.q.q.q.q.q.O.a a _ :.q.q.q.q.q.q.9.O.L f t 9 : # $ : ",
": : : : : : : = * # # q E ] ..4.q.q.q.q.q.8.5.8.0.q.q.q.q.o.r 9 l  .4.4.8.q.q.9.4.&.] L i = # = : : ",
": : : : : : : = O @ < a E _  .4.q.q.q.q.9.2.O.2.9.q.q.q.q.>.R r 1 k [  .&.5.8.2.X.l 2 - * $ * : : : ",
": : : : : = = - X O r d a L  .3.q.q.q.q.0.>. .>.q.q.q.9.4.&.{ l q w u p f G H l a 6 + X O $ : : : : ",
": : : : : : = * + : f u - p } 2.6.4.4.3.>...! O.3.4.5.5.=.[ ' ! P 7 & @ X o o @ o # * = * = : : : : ",
": : : : : = $ # 6 p d 6 + p _ o.[ T L z i q 0 a K P ! X. .[ ' ' ! l 7 @     . @ @ # = : : : : : : : ",
": : : : : : O o u L p > + e R R k y r 3 O   . * 6 w d T P P K G z z a < @   @ ; : : = : : : : : : : ",
": : : : : = O o u L u : o 1 u p y w q 3 X     . & 6 r i i w , & & & 1 a 0 o O ; = : : : : : : : : : ",
": : : : : : $ # 3 e < * + * < 9 w w q 2 +   X   o 2 w 7 2 & .   .   & z z 7 = % ; : : : : : : : : : ",
": : : : : : = * # o . # $ o + 3 r r r 7 o X # . O 7 u t < #   X & o * h P k , X $ : : : : : : : : : ",
": : : : : : : = # + O # * . o 3 p z H p # o $ X * z ] ' R a # X & & & 1 7 1 @ . $ : : : : : : : : : ",
": : : : : : : : : : = = = + + > r j l u # X * o : K [ ] [ G : @ = = * o . . . X $ : : : : : : : : : ",
": : : : : : : : : : : : : * # + # * & % . X * * = : < : , : = $ : : : $ $ $ $ * = : : : : : : : : : ",
": : : : : : : : : : : : : : * + X . X X X @ = : * + X X X o = : : : : : : : : : : : : : : : : : : : ",
": : : : : : : : : : : : : : = * * = * = - - : : = = * = = = : : : : : : : : : : : : : : : : : : : : ",
": : : : : : : : : : : : : : : : : : : : : : : : : = : : : = : : : : : : : : : : : : : : : : : : : : ",
": : : : : : : : : : : : : : : : : : : : : : : : : : : : : : : : : : : : : : : : : : : : : : : : : : ",
": : : : : : : : : : : : : : : : : : : : : : : : : : : : : : : : : : : : : : : : : : : : : : : : : : ",
": : : : : : : : : : : : : : : : : : : : : : : : : : : : : : : : : : : : : : : : : : : : : : : : : : ",
": : : : : : : : : : : : : : : : : : : : : : : : : : : : : : : : : : : : : : : : : : : : : : : : : : ",
": : : : : : : : : : : : : : : : : : : : : : : : : : : : : : : : : : : : : : : : : : : : : : : : : : ",
": : : : : : : : : : : : : : : : > : : : : : : : : : : : : : : : : : : : : : : : : : : : : : : : : : "
};
