/* XPM */
static char *result[] = {
/* columns rows colors chars-per-pixel */
"50 50 124 2 ",
"   c #030304",
".  c #0C0C0C",
"X  c #10100F",
"o  c #0F1010",
"O  c #131313",
"+  c #181717",
"@  c #181817",
"#  c #171718",
"$  c #171818",
"%  c #1B1C1B",
"&  c #20201F",
"*  c #1E1F20",
"=  c #1F2121",
"-  c #242424",
";  c #282827",
":  c #262728",
">  c #262929",
",  c #2A2A29",
"<  c #2D2F30",
"1  c #2D3031",
"2  c #313535",
"3  c #353738",
"4  c #373A3B",
"5  c #3A3D3E",
"6  c #523A34",
"7  c #3C3F41",
"8  c #3E4142",
"9  c #2E4E7B",
"0  c #424545",
"q  c #434749",
"w  c #464B4B",
"e  c #484D4E",
"r  c #4B4F51",
"t  c #4D5253",
"y  c #505556",
"u  c #515658",
"i  c #565B5D",
"p  c #585D5F",
"a  c #7B5C54",
"s  c #595E60",
"d  c #5D6365",
"f  c #606365",
"g  c #606768",
"h  c #646B6C",
"j  c #7B6C6A",
"k  c #676D70",
"l  c #696F71",
"z  c #6B7273",
"x  c #6F7679",
"c  c #70777A",
"v  c #737A7D",
"b  c #AC2E25",
"n  c #A93024",
"m  c #A8352B",
"M  c #8B473A",
"N  c #9B4737",
"B  c #9C4A3C",
"V  c #934F42",
"C  c #BD4F48",
"Z  c #AF665B",
"A  c #B8615F",
"S  c #826B66",
"D  c #C44744",
"F  c #C64D4B",
"G  c #9D817B",
"H  c #4D6487",
"J  c #456C98",
"K  c #5B7192",
"L  c #767E81",
"P  c #787F83",
"I  c #6B7F9C",
"U  c #798184",
"Y  c #7E8589",
"T  c #6299C6",
"R  c #828A8D",
"E  c #858D91",
"W  c #8A9295",
"Q  c #8D969A",
"!  c #8F989C",
"~  c #9E979A",
"^  c #919A9E",
"/  c #AE8981",
"(  c #B69892",
")  c #959DA1",
"_  c #97A0A4",
"`  c #99A2A6",
"'  c #9CA5AA",
"]  c #9FA8AD",
"[  c #A1AAAF",
"{  c #ADACAE",
"}  c #A3ADB2",
"|  c #A7B1B6",
" . c #A9B3B7",
".. c #ABB6BA",
"X. c #AEB9BD",
"o. c #B4BABE",
"O. c #BAB9B9",
"+. c #D48D90",
"@. c #C69093",
"#. c #D19597",
"$. c #C4B3B0",
"%. c #CEB4B5",
"&. c #93AEC5",
"*. c #9DAEC1",
"=. c #ACBDCB",
"-. c #B2BEC2",
";. c #B5C0C5",
":. c #BBC6CB",
">. c #BDC9CE",
",. c #A2C5DD",
"<. c #B4C4D1",
"1. c #BFCBD0",
"2. c #BED7E5",
"3. c #D5C8CD",
"4. c #C1CDD2",
"5. c #C5D2D7",
"6. c #C6D3D9",
"7. c #C9D6DB",
"8. c #CCD9DE",
"9. c #D4D4D9",
"0. c #CEDBE1",
"q. c #D1DEE4",
"w. c #D4E1E7",
"e. c #D5E2E8",
/* pixels */
", , , , , , , , , , , , , , , , , , , , , , , , , , , , , , , , , , , , , , , , , , , , , , , , , , ",
", , , , , , , , , , , , , , , , , , , , , , , , , , , , , , , , , , , , , , , , , , , , , , , , , , ",
", , , , , , , , , , , , , , , , , , , , , , , , , , , , , , , , , , , , , , , , , , , , , , , , , , ",
", , , , , , , , , , , , , , , , , , , , , , , , , , , , , , , , , , , , , , , , , , , , , , , , , , ",
", , , , , , , , , , , , , , , , , , , , , , , , , , , , , , , , , , , , , , , , , , , , , , , , , , ",
", , , , , , , , , , , , , , , , , , , , , , , , , , , , , , , , , , , , , , , , , , , , , , , , , , ",
", , , , , , , , , , , , , , , , , , , , , , , , , , , , , , , , , , , , , , , , , , , , , , , , , , ",
", , , , , , , , , , , , , , , , , , , , , , , , , , , , , , , , , , , , , , , , , , , , , , ; , , , ",
", , , , , , , , , , , , , , , , , , , , , , , , , , , , , , , , , , , , , , , , , , , , - + % - , , ",
", , , , , , , , , , , , , , , , , , , , , , , , , , , , , , , , , , , , , , , , , , , - * - - - ; ; ",
", , , , , , , , , , , , , , , , , , , , , , , , , , , , , , , , , , , , , , , , , , - # - i e # % ; ",
", , , , , , , , , , , , , , , , , , , , , , , , , , , , , , , , , , , , , , , , , , - o > Y h O + ; ",
", , , , , , , , , , , , , ; ; - , , , , , , , , , , , , < , , , , , , , , , , , , , - o < ) P # + , ",
", , , , , , , ; , , ; , ; @ X X % ; , ; , , , , , , , , , , , , , , , , , , , , , , - o 1 ` P $ + ; ",
", , , , ; & & & ; , ; ; & , < < , & & , , , , , , , , , , , , , , , , , , , , , , - - & q ` c # + ; ",
", , , , - O . X % ; ; % & f ` ` f & & , , , , , , , , , , , , , , , , , , , , , , % # w U ) d O @ ; ",
", , ; = % * * * % + % ; 0 S ( O.^ i , & - , , , , , , , , , , , , , , , , , ; , ; + O h ) l 7 % = , ",
", , ; O O 3 8 7 - . X 5 j V N G { { e O % , , , , , , , , , , , , , , , , , ; > ; % - U ) 4 # - , , ",
", , - X O 4 e w 4 , , 6 M m b B / o.u . - , , , , , , , , , , , , , , , , , , - % , p W R > X - , , ",
", , > o O 4 t s g h h a B C D n Z { i % % - , , , , , , , , , , , , , , , ; - - - i ^ E s - + - , , ",
", , - X O 7 d E } -.-.O.$.%.#.F A ~ h 2 @ + - , ; > > > , ; , ; , , ; , , - $ : d ^ | d : - - , , , ",
", , > X $ y E X.6.q.e.e.e.e.3.+.@.{ R y @ . O $ @ @ @ @ % @ @ @ # # + + % * , t R W x 5 # - , , , , ",
", , - X - v X.7.q.e.e.e.e.e.q.9.9.6...v = . o O O @ # # @ + % + # O O O O % i E E s - % - , , , , , ",
", , - X , Q 6.q.e.e.e.e.e.e.e.w.e.w.6.Q , : t i d c U P U U U P L h s i s d Y Y t < % - , , , , , , ",
"; > & - w | w.w.w.0.<.=.=.2.w.w.e.w.w.| r u ) [ ..5.w.8.q.8.q.8.6.-.} ] ' ) _ v ; X & ; , , , , , , ",
"; % @ w R >.e.e.w.<.I H K *.q.e.e.w.w.>.W ^ >.7.7.w.e.e.w.w.e.e.w.0.7.5.;.' _ v - X ; , , , , , , , ",
"; @ O i } 6.e.e.w.=.H 9 J &.0.e.e.e.w.7. .o.8.w.w.w.e.e.e.e.e.e.e.e.w.w.>.] _ v - X ; ; , , , , , , ",
"; @ O i ' ;.>.4.7.<.K J T ,.q.w.w.w.8.5. .;.w.w.w.w.w.e.e.e.e.e.e.e.e.q.:.' Q l - O ; , , , , , , , ",
"- + O s R g t d ' 1.*.&.,.2.w.w.5.;.X.;.:.5.w.w.e.e.e.w.e.e.e.e.e.e.e.w.>.) d 3 = & > , , , , , , , ",
", % # q d 4 , 8 ! 0.w.q.w.w.e.w.:.' R W >.w.w.w.e.e.e.w.e.e.e.e.e.e.q.7.-.W 8 X & , ; , , , , , , , ",
", - - - 2 d R ` >.w.w.w.w.w.w.0.:.Q t r  .w.e.e.e.w.w.w.e.w.e.e.e.e.7.-.[ W 7 X & ; ; , , , , , , , ",
", , - $ - w h Y ] 4.0.e.w.7.>.:.! d 0 d o.e.e.e.e.w.8.4.8.w.e.e.e.w.5.| _ W t = % & ; , , , , , , , ",
", , , - - + O - s ) -.>.:.] ! W d 1 s ) >.w.w.w.w.w.>. .>.w.e.e.e.e.6.| ^ Y h 5 $ O - , , , , , , , ",
", , , , - % + % < 8 r t t q 5 7 w p Y ' ..>.w.w.e.w.:.| :.w.e.e.e.e.6.[ x w d p % o > , , , , , , , ",
", , , , ; , , ; % . X .     . - t W _ ` ' ..1.:.;.-._ Y ! } X.;.;.1.:.] p = t h 4 = = - , , , , , , ",
", , , , , , , , - % & O     % i Y ^ ^ ) ^ ' ' Y h g e , > 4 p h z W ] ) p $ 3 d z w @ % ; , , , , , ",
", , , , , , , , , , > # . - 8 y p i p d x L c d q 1 %     X 4 e t h L v w O 1 p R p O @ ; , , , , , ",
", , , , , , , , , , - % % i k > X O X * 7 r t r 7 $ .     O 4 e w t t w 1 O , t v y O % ; , , , , , ",
", , , , , , , , , - # < s Y x - . X . . @ 1 w w 4 o . O . o 4 e w w 8 > % % % - 3 , % - , , , , , , ",
", , , , , , , , , & o < d L s = O & . . > w g h t % X = X # q p p t 4 @ O = @ X X @ ; ; , , , , , , ",
", , , , , , , , , - . . - - - * - - O - v [ ....R : O & O % g R U d 4 X X & ; & = - ; , , , , , , , ",
", , , , , , , , ; - + O o o + - , ; % ; g P P U d ; % - X + q p i 8 ; % % ; , , , , , , , , , , , , ",
", , , , , , , , , ; - - - - - , , ; ; - % + + $ % - ; - O . O O X X X = , , , , , , , , , , , , , , ",
", , , , , , , , , , , , , , , , , , , - % + @ @ % - , , % + @ @ @ @ % ; , , , , , , , , , , , , , , ",
", , , , , , , , , , , , , , , , , , , ; ; , ; , , , , , , , , , ; ; , ; , , , , , , , , , , , , , , ",
", , , , , , , , , , , , , , , , , , , , , , , , , , , , , , , , , , , , , , , , , , , , , , , , , , ",
", , , , , , , , , , , , , , , , , , , , , , , , , , , , , , , , , , , , , , , , , , , , , , , , , , ",
", , , , , , , , , , , , , , , , , , , , , , , , , , , , , , , , , , , , , , , , , , , , , , , , , , ",
", , , , , , , , , , , , , , , , , , , , , , , , , , , , , , , , , , , , , , , , , , , , , , , , , , ",
", , , , , , , , , , , , , , , , , , , , , , , , , , , , , , , , , , , , , , , , , , , , , , , , , , "
};
