/* XPM */
static char *result[] = {
/* columns rows colors chars-per-pixel */
"50 50 40 1 ",
"  c #272B26",
". c #282B27",
"X c #2A2A29",
"o c #2D332C",
"O c #30362F",
"+ c #323731",
"@ c #353A34",
"# c #383D37",
"$ c #3A3F39",
"% c #3C423B",
"& c #40453F",
"* c #424641",
"= c #444A44",
"- c #484C47",
"; c #4A4D49",
": c #4E524D",
"> c #545653",
", c #555955",
"< c #5B5D5A",
"1 c #5D615D",
"2 c #60655F",
"3 c #636362",
"4 c #666965",
"5 c #686C67",
"6 c #6B6D6B",
"7 c #6F716F",
"8 c #70736F",
"9 c #737373",
"0 c #777877",
"q c #7B7C7B",
"w c #7E807E",
"e c #848484",
"r c #878887",
"t c #8A8B8A",
"y c #939493",
"u c #9C9C9C",
"i c #9FA09F",
"p c #A0A09F",
"a c #A4A4A4",
"s c #AAAAAA",
/* pixels */
"XXXXXXXXXXXXXXXXXXXXXXXXXXXXXXXXXXXXXXXXXXXXXXXXXX",
"XXXXXXXXXXXXXXXXXXXXXXXXXXXXXXXXXXXXXXXXXXXXXXXXXX",
"XXXXXXXXXXXXXXXXXXXXXXXXXXXXXXXXXXXXXXXXXXXXXXXXXX",
"XXXXXXXXXXXXXXXXXXXXXXXXXXXXXXXXXXXXXXXXXXXXXXXXXX",
"XXXXXXXXXXXXXXXXXXXXXXXXXXXXoXXXXXXXXXXXXXXXXXXXXX",
"XXXXXXXXXXXXXXXXXXXXXXXXXXXXXXXXXXXXXXXXXXXXXXXXXX",
"XXXXXXXXXXXXXXXXXXXXXXXXXXXXXXXXXXXXXXXXXXXXXXXXXX",
"XXXXXXXXXXXXXXXXXXXXXXXXXXXXXXXXXXXXXXXXXXXXXXXXXX",
"XXXXXXXXXXXXXXXXXXXXXXXXXXXXXXXXXXXXXXXXXXXXXXXXXX",
"XXXXXXXXXXXXXXXXXXXXXXXXXXXXXXXXXXXXXXXXXXXXXXXXXX",
"XXXXXXXXXXXXXXXXXXXXXXXXXXXXXXXXXXXXXXXXXXXXXXXXXX",
"XXXXXXXXXXXXXXXXXXXXXXXXXXXXXXXXXXXXXXXXXXXXXXXXXX",
"XXXXXXXXXXXXXXXXXXXXXXXXXXXXXXXXXXXXXXXXXXXXXXXXXX",
"XXXXXXXXXXXXXXXXXXXXXXXXXXXXXXXXXXXXXXXXXXXXXXXXXX",
"XXXXXXXXXXXXXXXXXXXXXXXXXXXXXXXXXXXXXXXXXXXXXXXXXX",
"XXXXXXXXXXXXXXXXXXXXXXXXXXXXXXXXXXXXXXXXXXXXXXXXXX",
"XXXXXXXXXXXXXXXXXXXXXXXXXXXXXXXXXXXXXXXXXXXXXXXXXX",
"XXXXXXXXXXXXXXXXXXXX.XXX.XXXXXXXXX..XXXX.XXXXXXXXX",
"XXXXXXXXXXXXXXXXXXXX. .....XXXXXXX  .XX.XXXXXXXXXX",
"XXXXXXXXXXXXXX.XXX@#++#*&*@XXXXX..O%#X+@X.XXXXXXXX",
"XXXXXXXXXXXXXXXXX+>3;>6wtr2+ XXX  %81%:1#..XXXXXXX",
"XXXXXXXXXXXXXXo*:<qe<<wuss0*%*o.o&5r5%15#.XXXXXXXX",
"XXXXXXXXXXXXXo*6tuur33euspw<45*o%5yr1%,2#.XXXXXXXX",
"XXXXXXXXXXXXo=5taar97wuauq67ryq>%8ie1o%&o..XXXXXXX",
"XXXXXXXXXXXXo<risa9<quasu33ruay6-5tt5-=%o XXXXXXXX",
"XXXXXXXXXXXXO<tisu93tassy36usu934,1titt8%XXXXXXXXX",
"XXXXXXXXX+:*+<rasa93ysay06qasy13055isat5>%XXXXXXXX",
"XXXXXXXXX;q3#<eisu63ysa019yast33eyiasi5:51@XX.XXXX",
"XXXXXX.o>76>+;6eyt33eup9<0yat76quaayiarwyw1%.XXXXX",
"XX.XX+@#9t3$X#;6qq3<9yy6>9yy7<0yssiw0tyiiyq-X.XXXX",
"XXX.+<<;60<$XX#>30<>9ee3<9ee3<9yast:%-6rre0-oXXXXX",
"XXXX+::*;>*#XXX#;>;*><>;*><>;*>3892% o=<11,%XXXXXX",
"XXX..ooXooXX  XooooXoOoXooOoXooO++O...XOOOoX.XXXXX",
"XX.X.X...... X. XXX..X.....X.X......XXX.....X.XXXX",
"XXXXXXXXXXXXXXXXXXXXXXXXXXXXXXXXXXXXXXXX.XXXXXXXXX",
"XXXXXXXXXXXXXXXXXXXXXXXXXXXXXXXXXXXXXXXXXXXXXXXXXX",
"XXXXXXXXXXXXXXXXXXXXXXXXXXXXXXXXXXXXXXXXXXXXXXXXXX",
"XXXXXXXXXXXXXXXXXXXXXXXXXXXXXXXXXXXXXXXXXXXXXXXXXX",
"XXXXXXXXXXXXXXXXXXXXXXXXXXXXXXXXXXXXXXXXXXXXXXXXXX",
"XXXXXXXXXXXXXXXXXXXXXXXXXXXXXXXXXXXXXXXXXXXXXXXXXX",
"XXXXXXXXXXXXXXXXXXXXXXXXXXXXXXXXXXXXXXXXXXXXXXXXXX",
"XXXXXXXXXXXXXXXXXXXXXXXXXXXXXXXXXXXXXXXXXXXXXXXXXX",
"XXXXXXXXXXXXXXXXXXXXXXXXXXXXXXXXXXXXXXXXXXXXXXXXXX",
"XXXXXXXXXXXXXXXXXXXXXXXXXXXXXXXXXXXXXXXXXXXXXXXXXX",
"XXXXXXXXXXXXXXXXoXXXXXXXXXXXXXXXXXXXXXXXXXXXXXXXXX",
"XXXXXXXXXXXXXXXXXXXXXXXXXXXXXXXXXXXXXXXXXXXXXXXXXX",
"XXXXXXXXXXXXXXXXXXXXXXXXXXXXXXXXXXXXXXXXXXXXXXXXXX",
"XXXXXXXXXXXXXXXXXXXXXXXXXXXXXXXXXXXXXXXXXXXXXXXXXX",
"XXXXXXXXXXXXXXXXXXXXXXXXXXXXXXXXXXXXXXXXXXXXXXXXXX",
"XXXXXXXXXXXXXXXXXXXXXXXXXXXXXXXXXXXXXXXXXXXXXXXXXX"
};
