/* XPM */
static char *result[] = {
/* columns rows colors chars-per-pixel */
"120 120 65 1 ",
"  c #50504F",
". c #505050",
"X c #515150",
"o c #515151",
"O c #525251",
"+ c gray32",
"@ c #535352",
"# c #545453",
"$ c gray33",
"% c #555554",
"& c #555555",
"* c #565655",
"= c #565656",
"- c #575756",
"; c gray34",
": c #585857",
"> c #585858",
", c #595958",
"< c gray35",
"1 c #5A5A5A",
"2 c #5B5B5A",
"3 c #5B5B5B",
"4 c #5C5C5B",
"5 c gray36",
"6 c #5D5D5C",
"7 c #5D5D5D",
"8 c #5E5E5D",
"9 c gray37",
"0 c #5F5F5E",
"q c #5F5F5F",
"w c #60605F",
"e c #606060",
"r c #616160",
"t c gray38",
"y c #626261",
"u c #626262",
"i c gray39",
"p c #646463",
"a c #646464",
"s c #656564",
"d c #656565",
"f c gray40",
"g c #676766",
"h c #676767",
"j c #696968",
"k c DimGray",
"l c #6A6A6A",
"z c #6B6B6A",
"x c #6C6C6C",
"c c #6D6D6C",
"v c #6D6D6D",
"b c #6E6E6D",
"n c gray43",
"m c #70706F",
"M c gray44",
"N c #727272",
"B c gray45",
"V c #747474",
"C c #767676",
"Z c #777777",
"A c gray47",
"S c #797979",
"D c gray48",
"F c #7B7B7B",
"G c gray50",
/* pixels */
"GGGGGGGGGGGGGGGGGGGGGGGGGGDMg88gMDGGGGGGGGGGGGGGGGGGGGFVvfyq618gMDGGGGGGGGGGGGGGGGGGGGGGGGDMg88gMDGGGGGGGGGGGGGGGGGGGGGG",
"GGGGGGGGGGGGGGGGGGGGGGGGGGDMg88gMDGGGGGGGGGGGGGGGGGGGGFVvfyq618gMDGGGGGGGGGGGGGGGGGGGGGGGGDMg88gMDGGGGGGGGGGGGGGGGGGGGGG",
"FFFFFFFFFFFFFFFFFFFFFFFFFFZbs44sbZFFFFFFFFFFFFFFFFFFFFANxft04<4sbZFFFFFFFFFFFFFFFFFFFFFFFFZbs44sbZFFFFFFFFFFFFFFFFFFFFFF",
"VVVVVVVVVVVVVVVVVVVVVVVVVVMjr<<rjMVVVVVVVVVVVVVVVVVVVVNnkdt92-<rjMVVVVVVVVVVVVVVVVVVVVVVVVMjr<<rjMVVVVVVVVVVVVVVVVVVVVVV",
"vvvvvvvvvvvvvvvvvvvvvvvvvvli6==6ilvvvvvvvvvvvvvvvvvvvvxkhat7,%=6ilvvvvvvvvvvvvvvvvvvvvvvvvli6==6ilvvvvvvvvvvvvvvvvvvvvvv",
"ffffffffffffffffffffffffffp9,##,9pfffffffffffffffffffffdair5:@#,9pffffffffffffffffffffffffp9,##,9pffffffffffffffffffffff",
"iiiiiiiiiiiiiiiiiiiiiiiiiie4-OO-4eiiiiiiiiiiiiiiiiiiiiiiiie4-OO-4eiiiiiiiiiiiiiiiiiiiiiiiie4-OO-4eiiiiiiiiiiiiiiiiiiiiii",
"iiiiiiiiiiiiiiiiiiiiiiiiiie4-OO-4eiiiiiiiiiiiiiiiiiiiiiiiie4-OO-4eiiiiiiiiiiiiiiiiiiiiiiiie4-OO-4eiiiiiiiiiiiiiiiiiiiiii",
"iiiiiiiiiiiiiiiiiiiiiiiiiie4-OO-4eiiiiiiiiiiiiiiiiiiiiiiiie4-OO-4eiiiiiiiiiiiiiiiiiiiiiiiie4-OO-4eiiiiiiiiiiiiiiiiiiiiii",
"iiiiiiiiiiiiiiiiiiiiiiiiiie4-OO-4eiiiiiiiiiiiiiiiiiiiiiiiie4-OO-4eiiiiiiiiiiiiiiiiiiiiiiiie4-OO-4eiiiiiiiiiiiiiiiiiiiiii",
"uuuuuuuuuuuuuuuuuuuuuuuuuue3=OO=3euuuuuuuuuuuuuuuuuuuuuuuue3=OO=3euuuuuuuuuuuuuuuuuuuuuuuue3=OO=3euuuuuuuuuuuuuuuuuuuuuu",
"eeeeeeeeeeeeeeeeeeeeeeeeee91*OO*19eeeeeeeeeeeeeeeeeeeeeeee91*OO*19eeeeeeeeeeeeeeeeeeeeeeee91*OO*19eeeeeeeeeeeeeeeeeeeeee",
"qqqqqqqqqqqqqqqqqqqqqqqqqq7<&OO&<7qqqqqqqqqqqqqqqqqqqqqqqq7<&OO&<7qqqqqqqqqqqqqqqqqqqqqqqq7<&OO&<7qqqqqqqqqqqqqqqqqqqqqq",
"777777777777777777777777773>%oo%>37777777777777777777777773>%oo%>37777777777777777777777773>%oo%>37777777777777777777777",
"11111111111111111111111111<=#XX#=<111111111111111111111111<=#XX#=<111111111111111111111111<=#XX#=<1111111111111111111111",
";;;;;;;;;;;;;;;;;;;;;;;;;;=$@XX@$=;;;;;;;;;;;;;;;;;;;;;;;;=$@XX@$=;;;;;;;;;;;;;;;;;;;;;;;;=$@XX@$=;;;;;;;;;;;;;;;;;;;;;;",
"$$$$$$$$$$$$$$$$$$$$$$$$$$#@o  o@#$$$$$$$$$$$$$$$$$$$$$$$$#@o  o@#$$$$$$$$$$$$$$$$$$$$$$$$#@o  o@#$$$$$$$$$$$$$$$$$$$$$$",
"XXXXXXXXXXXXXXXXXXXXXXXXXXXX    XXXXXXXXXXXXXXXXXXXXXXXXXXXX    XXXXXXXXXXXXXXXXXXXXXXXXXXXX    XXXXXXXXXXXXXXXXXXXXXXXX",
"&&&&&&%@O..O@%&&&&&&&&&&&&&&&&&&&&&&&&%@O..O@%&&&&&&&&&&&&%@O..O@%&&&&&&&&&&&&&&&&&&&&%@O..O@%&&&&&&&&&&&&&&&&%@O..O@%&&",
"rrrrrr01*OO*10rrrrrrrrrrrrrrrrrrrrrrrr01*OO*10rrrrrrrrrrrr01*OO*10rrrrrrrrrrrrrrrrrrrr01*OO*10rrrrrrrrrrrrrrrr01*OO*10rr",
"ccccccky1@@1ykccccccccccccccccccccccccky1@@1ykccccccccccccky1@@1ykccccccccccccccccccccky1@@1ykccccccccccccccccky1@@1ykcc",
"SSSSSSBk0%%0kBSSSSSSSSSSSSSSSSSSSSSSSSBk0%%0kBSSSSSSSSSSSSBk0%%0kBSSSSSSSSSSSSSSSSSSSSBk0%%0kBSSSSSSSSSSSSSSSSBk0%%0kBSS",
"FFFFFFCzw%%wzCFFFFFFFFFFFFFFFFFFFFFFFFCzw%%wzCFFFFFFFFFFFFCzw%%wzCFFFFFFFFFFFFFFFFFFFFCzw%%wzCFFFFFFFFFFFFFFFFCzw%%wzCFF",
"VVVVVVmf6##6fmVVVVVVVVVVVVVVVVVVVVVVVVmf6##6fmVVVVVVVVVVVVmf6##6fmVVVVVVVVVVVVVVVVVVVVmf6##6fmVVVVVVVVVVVVVVVVmf6##6fmVV",
"vvvvvvku2@@2ukvvvvvvvvvvvvvvvvvvvvvvvvku2@@2ukvvvvvvvvvvvvku2@@2ukvvvvvvvvvvvvvvvvvvvvku2@@2ukvvvvvvvvvvvvvvvvku2@@2ukvv",
"ffffffi8:++:8iffffffffffffffffffffffffi8:++:8iffffffffffffi8:++:8iffffffffffffffffffffi8:++:8iffffffffffffffffi8:++:8iff",
"iiiiiie4-OO-4eiiiiiiiiiiiiiiiiiiiiiiiie4-OO-4eiiiiiiiiiiiie4-OO-4eiiiiiiiiiiiiiiiiiiiie4-OO-4eiiiiiiiiiiiiiiiie4-OO-4eii",
"iiiiiie4-OO-4eiiiiiiiiiiiiiiiiiiiiiiiie4-OO-4eiiiiiiiiiiiie4-OO-4eiiiiiiiiiiiiiiiiiiiie4-OO-4eiiiiiiiiiiiiiiiie4-OO-4eii",
"iiiiiie4-OO-4eiiiiiiiiiiiiiiiiiiiiiiiie4-OO-4eiiiiiiiiiiiie4-OO-4eiiiiiiiiiiiiiiiiiiiie4-OO-4eiiiiiiiiiiiiiiiie4-OO-4eii",
"iiiiiie4-OO-4eiiiiiiiiiiiiiiiiiiiiiiiie4-OO-4eiiiiiiiiiiiie4-OO-4eiiiiiiiiiiiiiiiiiiiie4-OO-4eiiiiiiiiiiiiiiiie4-OO-4eii",
"uuuuuue3=OO=3euuuuuuuuuuuuuuuuuuuuuuuue3=OO=3euuuuuuuuuuuue3=OO=3euuuuuuuuuuuuuuuuuuuue3=OO=3euuuuuuuuuuuuuuuue3=OO=3euu",
"eeeeee91*OO*19eeeeeeeeeeeeeeeeeeeeeeee91*OO*19eeeeeeeeeeee91*OO*19eeeeeeeeeeeeeeeeeeee91*OO*19eeeeeeeeeeeeeeee91*OO*19ee",
"qqqqqq7<&OO&<7qqqqqqqqqqqqqqqqqqqqqqqq7<&OO&<7qqqqqqqqqqqq7<&OO&<7qqqqqqqqqqqqqqqqqqqq7<&OO&<7qqqqqqqqqqqqqqqq7<&OO&<7qq",
"7777773>%oo%>37777777777777777777777773>%oo%>37777777777773>%oo%>3777777777777777777773>%oo%>377777777777777773>%oo%>377",
"111111<=#XX#=<111111111111111111111111<=#XX#=<111111111111<=#XX#=<11111111111111111111<=#XX#=<1111111111111111<=#XX#=<11",
";;;;;;=$@XX@$=;;;;;;;;;;;;;;;;;;;;;;;;=$@XX@$=;;;;;;;;;;;;=$@XX@$=;;;;;;;;;;;;;;;;;;;;=$@XX@$=;;;;;;;;;;;;;;;;=$@XX@$=;;",
"$$$$$$#@o  o@#$$$$$$$$$$$$$$$$$$$$$$$$#@o  o@#$$$$$$$$$$$$#@o  o@#$$$$$$$$$$$$$$$$$$$$#@o  o@#$$$$$$$$$$$$$$$$#@o  o@#$$",
"XXXXXXXX    XXXXXXXXXXXXXXXXXXXXXXXXXXXX    XXXXXXXXXXXXXXXX    XXXXXXXXXXXXXXXXXXXXXXXX    XXXXXXXXXXXXXXXXXXXX    XXXX",
"  .O@%&&&&&&&&&&&&&&&&&&&&%@O..O@%&&&&&&&&&&&&%@O..O@%&&&&&&&&&&&&&&&&&&&&%@O..O@%&&&&&&&&&&&&&&&&%@O..O@%&&&&&&&&&&&&&&",
"  O*10rrrrrrrrrrrrrrrrrrrr01*OO*10rrrrrrrrrrrr01*OO*10rrrrrrrrrrrrrrrrrrrr01*OO*10rrrrrrrrrrrrrrrr01*OO*10rrrrrrrrrrrrrr",
"  @1ykccccccccccccccccccccky1@@1ykccccccccccccky1@@1ykccccccccccccccccccccky1@@1ykccccccccccccccccky1@@1ykcccccccccccccc",
"  %0kBSSSSSSSSSSSSSSSSSSSSBk0%%0kBSSSSSSSSSSSSBk0%%0kBSSSSSSSSSSSSSSSSSSSSBk0%%0kBSSSSSSSSSSSSSSSSBk0%%0kBSSSSSSSSSSSSSS",
"  %wzCFFFFFFFFFFFFFFFFFFFFCzw%%wzCFFFFFFFFFFFFCzw%%wzCFFFFFFFFFFFFFFFFFFFFCzw%%wzCFFFFFFFFFFFFFFFFCzw%%wzCFFFFFFFFFFFFFF",
"  #6fmVVVVVVVVVVVVVVVVVVVVmf6##6fmVVVVVVVVVVVVmf6##6fmVVVVVVVVVVVVVVVVVVVVmf6##6fmVVVVVVVVVVVVVVVVmf6##6fmVVVVVVVVVVVVVV",
"  @2ukvvvvvvvvvvvvvvvvvvvvku2@@2ukvvvvvvvvvvvvku2@@2ukvvvvvvvvvvvvvvvvvvvvku2@@2ukvvvvvvvvvvvvvvvvku2@@2ukvvvvvvvvvvvvvv",
"  +:8iffffffffffffffffffffi8:++:8iffffffffffffi8:++:8iffffffffffffffffffffi8:++:8iffffffffffffffffi8:++:8iffffffffffffff",
"  O-4eiiiiiiiiiiiiiiiiiiiie4-OO-4eiiiiiiiiiiiie4-OO-4eiiiiiiiiiiiiiiiiiiiie4-OO-4eiiiiiiiiiiiiiiiie4-OO-4eiiiiiiiiiiiiii",
"  O-4eiiiiiiiiiiiiiiiiiiiie4-OO-4eiiiiiiiiiiiie4-OO-4eiiiiiiiiiiiiiiiiiiiie4-OO-4eiiiiiiiiiiiiiiiie4-OO-4eiiiiiiiiiiiiii",
"  O-4eiiiiiiiiiiiiiiiiiiiie4-OO-4eiiiiiiiiiiiie4-OO-4eiiiiiiiiiiiiiiiiiiiie4-OO-4eiiiiiiiiiiiiiiiie4-OO-4eiiiiiiiiiiiiii",
"  O-4eiiiiiiiiiiiiiiiiiiiie4-OO-4eiiiiiiiiiiiie4-OO-4eiiiiiiiiiiiiiiiiiiiie4-OO-4eiiiiiiiiiiiiiiiie4-OO-4eiiiiiiiiiiiiii",
"  O=3euuuuuuuuuuuuuuuuuuuue3=OO=3euuuuuuuuuuuue3=OO=3euuuuuuuuuuuuuuuuuuuue3=OO=3euuuuuuuuuuuuuuuue3=OO=3euuuuuuuuuuuuuu",
"  O*19eeeeeeeeeeeeeeeeeeee91*OO*19eeeeeeeeeeee91*OO*19eeeeeeeeeeeeeeeeeeee91*OO*19eeeeeeeeeeeeeeee91*OO*19eeeeeeeeeeeeee",
"  O&<7qqqqqqqqqqqqqqqqqqqq7<&OO&<7qqqqqqqqqqqq7<&OO&<7qqqqqqqqqqqqqqqqqqqq7<&OO&<7qqqqqqqqqqqqqqqq7<&OO&<7qqqqqqqqqqqqqq",
"  o%>3777777777777777777773>%oo%>37777777777773>%oo%>3777777777777777777773>%oo%>377777777777777773>%oo%>377777777777777",
"  X#=<11111111111111111111<=#XX#=<111111111111<=#XX#=<11111111111111111111<=#XX#=<1111111111111111<=#XX#=<11111111111111",
"  X@$=;;;;;;;;;;;;;;;;;;;;=$@XX@$=;;;;;;;;;;;;=$@XX@$=;;;;;;;;;;;;;;;;;;;;=$@XX@$=;;;;;;;;;;;;;;;;=$@XX@$=;;;;;;;;;;;;;;",
"   o@#$$$$$$$$$$$$$$$$$$$$#@o  o@#$$$$$$$$$$$$#@o  o@#$$$$$$$$$$$$$$$$$$$$#@o  o@#$$$$$$$$$$$$$$$$#@o  o@#$$$$$$$$$$$$$$",
"    XXXXXXXXXXXXXXXXXXXXXXXX    XXXXXXXXXXXXXXXX    XXXXXXXXXXXXXXXXXXXXXXXX    XXXXXXXXXXXXXXXXXXXX    XXXXXXXXXXXXXXXX",
"&&&&&&&&&&&&&&%@O..O@%&&&&&&&&&&&&%@O..O@%&&&&&&&&&&&&&&&&%@O..O@%&&&&&&&&&&&&&&&&&&&&%@O..O@%&&&&&&&&&&&&&&&&&&&&%@O.  ",
"rrrrrrrrrrrrrr01*OO*10rrrrrrrrrrrr01*OO*10rrrrrrrrrrrrrrrr01*OO*10rrrrrrrrrrrrrrrrrrrr01*OO*10rrrrrrrrrrrrrrrrrrrr01*O  ",
"ccccccccccccccky1@@1ykccccccccccccky1@@1ykccccccccccccccccky1@@1ykccccccccccccccccccccky1@@1ykccccccccccccccccccccky1@  ",
"SSSSSSSSSSSSSSBk0%%0kBSSSSSSSSSSSSBk0%%0kBSSSSSSSSSSSSSSSSBk0%%0kBSSSSSSSSSSSSSSSSSSSSBk0%%0kBSSSSSSSSSSSSSSSSSSSSBk0%  ",
"FFFFFFFFFFFFFFCzw%%wzCFFFFFFFFFFFFCzw%%wzCFFFFFFFFFFFFFFFFCzw%%wzCFFFFFFFFFFFFFFFFFFFFCzw%%wzCFFFFFFFFFFFFFFFFFFFFCzw%  ",
"VVVVVVVVVVVVVVmf6##6fmVVVVVVVVVVVVmf6##6fmVVVVVVVVVVVVVVVVmf6##6fmVVVVVVVVVVVVVVVVVVVVmf6##6fmVVVVVVVVVVVVVVVVVVVVmf6#  ",
"vvvvvvvvvvvvvvku2@@2ukvvvvvvvvvvvvku2@@2ukvvvvvvvvvvvvvvvvku2@@2ukvvvvvvvvvvvvvvvvvvvvku2@@2ukvvvvvvvvvvvvvvvvvvvvku2@  ",
"ffffffffffffffi8:++:8iffffffffffffi8:++:8iffffffffffffffffi8:++:8iffffffffffffffffffffi8:++:8iffffffffffffffffffffi8:+  ",
"iiiiiiiiiiiiiie4-OO-4eiiiiiiiiiiiie4-OO-4eiiiiiiiiiiiiiiiie4-OO-4eiiiiiiiiiiiiiiiiiiiie4-OO-4eiiiiiiiiiiiiiiiiiiiie4-O  ",
"iiiiiiiiiiiiiie4-OO-4eiiiiiiiiiiiie4-OO-4eiiiiiiiiiiiiiiiie4-OO-4eiiiiiiiiiiiiiiiiiiiie4-OO-4eiiiiiiiiiiiiiiiiiiiie4-O  ",
"iiiiiiiiiiiiiie4-OO-4eiiiiiiiiiiiie4-OO-4eiiiiiiiiiiiiiiiie4-OO-4eiiiiiiiiiiiiiiiiiiiie4-OO-4eiiiiiiiiiiiiiiiiiiiie4-O  ",
"iiiiiiiiiiiiiie4-OO-4eiiiiiiiiiiiie4-OO-4eiiiiiiiiiiiiiiiie4-OO-4eiiiiiiiiiiiiiiiiiiiie4-OO-4eiiiiiiiiiiiiiiiiiiiie4-O  ",
"uuuuuuuuuuuuuue3=OO=3euuuuuuuuuuuue3=OO=3euuuuuuuuuuuuuuuue3=OO=3euuuuuuuuuuuuuuuuuuuue3=OO=3euuuuuuuuuuuuuuuuuuuue3=O  ",
"eeeeeeeeeeeeee91*OO*19eeeeeeeeeeee91*OO*19eeeeeeeeeeeeeeee91*OO*19eeeeeeeeeeeeeeeeeeee91*OO*19eeeeeeeeeeeeeeeeeeee91*O  ",
"qqqqqqqqqqqqqq7<&OO&<7qqqqqqqqqqqq7<&OO&<7qqqqqqqqqqqqqqqq7<&OO&<7qqqqqqqqqqqqqqqqqqqq7<&OO&<7qqqqqqqqqqqqqqqqqqqq7<&O  ",
"777777777777773>%oo%>37777777777773>%oo%>377777777777777773>%oo%>3777777777777777777773>%oo%>3777777777777777777773>%o  ",
"11111111111111<=#XX#=<111111111111<=#XX#=<1111111111111111<=#XX#=<11111111111111111111<=#XX#=<11111111111111111111<=#X  ",
";;;;;;;;;;;;;;=$@XX@$=;;;;;;;;;;;;=$@XX@$=;;;;;;;;;;;;;;;;=$@XX@$=;;;;;;;;;;;;;;;;;;;;=$@XX@$=;;;;;;;;;;;;;;;;;;;;=$@X  ",
"$$$$$$$$$$$$$$#@o  o@#$$$$$$$$$$$$#@o  o@#$$$$$$$$$$$$$$$$#@o  o@#$$$$$$$$$$$$$$$$$$$$#@o  o@#$$$$$$$$$$$$$$$$$$$$#@o   ",
"XXXXXXXXXXXXXXXX    XXXXXXXXXXXXXXXX    XXXXXXXXXXXXXXXXXXXX    XXXXXXXXXXXXXXXXXXXXXXXX    XXXXXXXXXXXXXXXXXXXXXXXX    ",
"&&%@O..O@%&&&&&&&&&&&&&&&&%@O..O@%&&&&&&&&&&&&%@O..O@%&&&&&&&&&&&&&&&&%@O..O@%&&&&&&&&&&&&&&&&&&&&%@O..O@%&&&&&&&&&&&&&&",
"rr01*OO*10rrrrrrrrrrrrrrrr01*OO*10rrrrrrrrrrrr01*OO*10rrrrrrrrrrrrrrrr01*OO*10rrrrrrrrrrrrrrrrrrrr01*OO*10rrrrrrrrrrrrrr",
"ccky1@@1ykccccccccccccccccky1@@1ykccccccccccccky1@@1ykccccccccccccccccky1@@1ykccccccccccccccccccccky1@@1ykcccccccccccccc",
"SSBk0%%0kBSSSSSSSSSSSSSSSSBk0%%0kBSSSSSSSSSSSSBk0%%0kBSSSSSSSSSSSSSSSSBk0%%0kBSSSSSSSSSSSSSSSSSSSSBk0%%0kBSSSSSSSSSSSSSS",
"FFCzw%%wzCFFFFFFFFFFFFFFFFCzw%%wzCFFFFFFFFFFFFCzw%%wzCFFFFFFFFFFFFFFFFCzw%%wzCFFFFFFFFFFFFFFFFFFFFCzw%%wzCFFFFFFFFFFFFFF",
"VVmf6##6fmVVVVVVVVVVVVVVVVmf6##6fmVVVVVVVVVVVVmf6##6fmVVVVVVVVVVVVVVVVmf6##6fmVVVVVVVVVVVVVVVVVVVVmf6##6fmVVVVVVVVVVVVVV",
"vvku2@@2ukvvvvvvvvvvvvvvvvku2@@2ukvvvvvvvvvvvvku2@@2ukvvvvvvvvvvvvvvvvku2@@2ukvvvvvvvvvvvvvvvvvvvvku2@@2ukvvvvvvvvvvvvvv",
"ffi8:++:8iffffffffffffffffi8:++:8iffffffffffffi8:++:8iffffffffffffffffi8:++:8iffffffffffffffffffffi8:++:8iffffffffffffff",
"iie4-OO-4eiiiiiiiiiiiiiiiie4-OO-4eiiiiiiiiiiiie4-OO-4eiiiiiiiiiiiiiiiie4-OO-4eiiiiiiiiiiiiiiiiiiiie4-OO-4eiiiiiiiiiiiiii",
"iie4-OO-4eiiiiiiiiiiiiiiiie4-OO-4eiiiiiiiiiiiie4-OO-4eiiiiiiiiiiiiiiiie4-OO-4eiiiiiiiiiiiiiiiiiiiie4-OO-4eiiiiiiiiiiiiii",
"iie4-OO-4eiiiiiiiiiiiiiiiie4-OO-4eiiiiiiiiiiiie4-OO-4eiiiiiiiiiiiiiiiie4-OO-4eiiiiiiiiiiiiiiiiiiiie4-OO-4eiiiiiiiiiiiiii",
"iie4-OO-4eiiiiiiiiiiiiiiiie4-OO-4eiiiiiiiiiiiie4-OO-4eiiiiiiiiiiiiiiiie4-OO-4eiiiiiiiiiiiiiiiiiiiie4-OO-4eiiiiiiiiiiiiii",
"uue3=OO=3euuuuuuuuuuuuuuuue3=OO=3euuuuuuuuuuuue3=OO=3euuuuuuuuuuuuuuuue3=OO=3euuuuuuuuuuuuuuuuuuuue3=OO=3euuuuuuuuuuuuuu",
"ee91*OO*19eeeeeeeeeeeeeeee91*OO*19eeeeeeeeeeee91*OO*19eeeeeeeeeeeeeeee91*OO*19eeeeeeeeeeeeeeeeeeee91*OO*19eeeeeeeeeeeeee",
"qq7<&OO&<7qqqqqqqqqqqqqqqq7<&OO&<7qqqqqqqqqqqq7<&OO&<7qqqqqqqqqqqqqqqq7<&OO&<7qqqqqqqqqqqqqqqqqqqq7<&OO&<7qqqqqqqqqqqqqq",
"773>%oo%>377777777777777773>%oo%>37777777777773>%oo%>377777777777777773>%oo%>3777777777777777777773>%oo%>377777777777777",
"11<=#XX#=<1111111111111111<=#XX#=<111111111111<=#XX#=<1111111111111111<=#XX#=<11111111111111111111<=#XX#=<11111111111111",
";;=$@XX@$=;;;;;;;;;;;;;;;;=$@XX@$=;;;;;;;;;;;;=$@XX@$=;;;;;;;;;;;;;;;;=$@XX@$=;;;;;;;;;;;;;;;;;;;;=$@XX@$=;;;;;;;;;;;;;;",
"$$#@o  o@#$$$$$$$$$$$$$$$$#@o  o@#$$$$$$$$$$$$#@o  o@#$$$$$$$$$$$$$$$$#@o  o@#$$$$$$$$$$$$$$$$$$$$#@o  o@#$$$$$$$$$$$$$$",
"XXXX    XXXXXXXXXXXXXXXXXXXX    XXXXXXXXXXXXXXXX    XXXXXXXXXXXXXXXXXXXX    XXXXXXXXXXXXXXXXXXXXXXXX    XXXXXXXXXXXXXXXX",
"&&&&&&&&&&&&&&%@O..O@%&&&&&&&&&&&&&&&&%@O..O@%&&&&&&&&&&&&%@O..O@%&&&&&&&&&&&&&&&&&&&&%@O..O@%&&&&&&&&&&&&&&&&&&&&%@O.  ",
"rrrrrrrrrrrrrr01*OO*10rrrrrrrrrrrrrrrr01*OO*10rrrrrrrrrrrr01*OO*10rrrrrrrrrrrrrrrrrrrr01*OO*10rrrrrrrrrrrrrrrrrrrr01*O  ",
"ccccccccccccccky1@@1ykccccccccccccccccky1@@1ykccccccccccccky1@@1ykccccccccccccccccccccky1@@1ykccccccccccccccccccccky1@  ",
"SSSSSSSSSSSSSSBk0%%0kBSSSSSSSSSSSSSSSSBk0%%0kBSSSSSSSSSSSSBk0%%0kBSSSSSSSSSSSSSSSSSSSSBk0%%0kBSSSSSSSSSSSSSSSSSSSSBk0%  ",
"FFFFFFFFFFFFFFCzw%%wzCFFFFFFFFFFFFFFFFCzw%%wzCFFFFFFFFFFFFCzw%%wzCFFFFFFFFFFFFFFFFFFFFCzw%%wzCFFFFFFFFFFFFFFFFFFFFCzw%  ",
"VVVVVVVVVVVVVVmf6##6fmVVVVVVVVVVVVVVVVmf6##6fmVVVVVVVVVVVVmf6##6fmVVVVVVVVVVVVVVVVVVVVmf6##6fmVVVVVVVVVVVVVVVVVVVVmf6#  ",
"vvvvvvvvvvvvvvku2@@2ukvvvvvvvvvvvvvvvvku2@@2ukvvvvvvvvvvvvku2@@2ukvvvvvvvvvvvvvvvvvvvvku2@@2ukvvvvvvvvvvvvvvvvvvvvku2@  ",
"ffffffffffffffi8:++:8iffffffffffffffffi8:++:8iffffffffffffi8:++:8iffffffffffffffffffffi8:++:8iffffffffffffffffffffi8:+  ",
"iiiiiiiiiiiiiie4-OO-4eiiiiiiiiiiiiiiiie4-OO-4eiiiiiiiiiiiie4-OO-4eiiiiiiiiiiiiiiiiiiiie4-OO-4eiiiiiiiiiiiiiiiiiiiie4-O  ",
"iiiiiiiiiiiiiie4-OO-4eiiiiiiiiiiiiiiiie4-OO-4eiiiiiiiiiiiie4-OO-4eiiiiiiiiiiiiiiiiiiiie4-OO-4eiiiiiiiiiiiiiiiiiiiie4-O  ",
"iiiiiiiiiiiiiie4-OO-4eiiiiiiiiiiiiiiiie4-OO-4eiiiiiiiiiiiie4-OO-4eiiiiiiiiiiiiiiiiiiiie4-OO-4eiiiiiiiiiiiiiiiiiiiie4-O  ",
"iiiiiiiiiiiiiie4-OO-4eiiiiiiiiiiiiiiiie4-OO-4eiiiiiiiiiiiie4-OO-4eiiiiiiiiiiiiiiiiiiiie4-OO-4eiiiiiiiiiiiiiiiiiiiie4-O  ",
"uuuuuuuuuuuuuue3=OO=3euuuuuuuuuuuuuuuue3=OO=3euuuuuuuuuuuue3=OO=3euuuuuuuuuuuuuuuuuuuue3=OO=3euuuuuuuuuuuuuuuuuuuue3=O  ",
"eeeeeeeeeeeeee91*OO*19eeeeeeeeeeeeeeee91*OO*19eeeeeeeeeeee91*OO*19eeeeeeeeeeeeeeeeeeee91*OO*19eeeeeeeeeeeeeeeeeeee91*O  ",
"qqqqqqqqqqqqqq7<&OO&<7qqqqqqqqqqqqqqqq7<&OO&<7qqqqqqqqqqqq7<&OO&<7qqqqqqqqqqqqqqqqqqqq7<&OO&<7qqqqqqqqqqqqqqqqqqqq7<&O  ",
"777777777777773>%oo%>377777777777777773>%oo%>37777777777773>%oo%>3777777777777777777773>%oo%>3777777777777777777773>%o  ",
"11111111111111<=#XX#=<1111111111111111<=#XX#=<111111111111<=#XX#=<11111111111111111111<=#XX#=<11111111111111111111<=#X  ",
";;;;;;;;;;;;;;=$@XX@$=;;;;;;;;;;;;;;;;=$@XX@$=;;;;;;;;;;;;=$@XX@$=;;;;;;;;;;;;;;;;;;;;=$@XX@$=;;;;;;;;;;;;;;;;;;;;=$@X  ",
"$$$$$$$$$$$$$$#@o  o@#$$$$$$$$$$$$$$$$#@o  o@#$$$$$$$$$$$$#@o  o@#$$$$$$$$$$$$$$$$$$$$#@o  o@#$$$$$$$$$$$$$$$$$$$$#@o   ",
"XXXXXXXXXXXXXXXX    XXXXXXXXXXXXXXXXXXXX    XXXXXXXXXXXXXXXX    XXXXXXXXXXXXXXXXXXXXXXXX    XXXXXXXXXXXXXXXXXXXXXXXX    ",
"                                                                                                                        ",
"                                                                                                                        "
};
