/* XPM */
static char *result[] = {
/* columns rows colors chars-per-pixel */
"50 50 73 1 ",
"  c #7E7E7E",
". c gray49",
"X c gray43",
"o c #60605F",
"O c #7B7B7B",
"+ c #6D6D6D",
"@ c #616160",
"# c #5B5B5B",
"$ c #676766",
"% c gray48",
"& c #626261",
"* c gray46",
"= c gray45",
"- c #727272",
"; c #5B5B5A",
": c #717171",
"> c DimGray",
", c #595958",
"< c gray44",
"1 c gray36",
"2 c #6C6C6C",
"3 c #656565",
"4 c #646464",
"5 c #5D5D5C",
"6 c #545453",
"7 c gray37",
"8 c #555554",
"9 c gray39",
"0 c #555555",
"q c #606060",
"w c #626262",
"e c #5A5A5A",
"r c #535352",
"t c #575756",
"y c #5E5E5D",
"u c gray38",
"i c #5A5A59",
"p c #5D5D5D",
"a c #565656",
"s c #5F5F5F",
"d c gray34",
"f c #525251",
"g c #535353",
"h c #505050",
"j c #515150",
"k c #565655",
"l c gray33",
"z c #515151",
"x c #6B6B6A",
"c c gray42",
"v c #686868",
"b c #6A6A6A",
"n c #656564",
"m c #777777",
"M c #5F5F5E",
"N c #767676",
"B c gray40",
"V c gray35",
"C c #636362",
"Z c #585858",
"A c gray32",
"S c #50504F",
"D c #51514F",
"F c #6E6E6D",
"G c #4F4F4E",
"H c #585857",
"J c #737372",
"K c #727271",
"L c #646463",
"P c #6F6F6F",
"I c #5C5C5B",
"U c gray31",
"Y c white",
/* pixels */
"          .XoX.       O+@#$%         %$&*         ",
"==========-$;$-=======:>o,@<=========<@12=========",
"33333333334565433333333478,93333333339,0q333333333",
"wwwwwwwwwwwerewwwwwwwwww76tqwwwwwwwwwqt6ywwwwwwwww",
"uuuuuuuuuuqiriquuuuuuuuup6asuuuuuuuuusa6puuuuuuuuu",
"pppppppppp1dfd1ppppppppper8#ppppppppp#8reppppppppp",
"aaaaaaaaaaaghgaaaaaaaaaa8jf0aaaaaaaaakfjlaaaaaaaaa",
"88lfz688888l6l88rjr888886jzl88888888rjf6888888rjr8",
"xcvik4cxxxxxcxcbslsbcxxcnkevcxxxxxcbslsbcxxxcbslob",
"mm=M,+mmmmmmmmmNBtBNmmmm+,M=mmmmmmmNBtBNmmmmmNBt$*",
">>BV0C>>>>>>>>>v767v>>>>C0VB>>>>>>>v767v>>>>>v767v",
"w9qt6ywwwwwwww9w;r;w9wwwy6tq9wwwww9w;r;w9www9w;r;w",
"wwqt6pwwwwwwwwwuereuwwwwp6tqwwwwwwwuereuwwwwwuereu",
"77p0r#7777777777ZAZ77777#r0p77777777ZAZ7777777ZAZ7",
"VVZrfaVVVVVVVVVZ8j8ZVVVVafrZVVVVVVVZ8j8ZVVVVVZ8j8Z",
"fArzjArrrrrAfArrfjfrAArrAjzrrrrAfArrfjfrrAfArrfjfr",
"Sto&&&&&&&&ere&&&&&y6to&&&&&&&&ere&&&&&&&ere&&&&&&",
"DM=mmmmmmmNBtBNmmmmF,M=mmmmmmmNBtBNmmmmmNBtBNmmmmm",
"S#xXXXXXXX+u8u+XXXX$t#xXXXXXXX+u8u+XXXXX+u8u+XXXXX",
"Stu9999999C;r;C999976tu9999999C;r;C99999C;r;C99999",
"Stqwwwwwwwwerewwwwwy6tqwwwwwwwwerewwwwwwwerewwwwww",
"Sk7qqqqqqqsVAVsqqqq1gk7qqqqqqqsVAVsqqqqqsVAVsqqqqq",
"S6e########afa#####ZA6e########afa#######afa######",
"Gjg6666l666fSf6l666rhjg66l66666fSf666l666fSf66666l",
"iiiiiikzkiiiiiHf6,iiiiiiHf6,iiiiiiiikzkiiiiiiii,6S",
"JJJJJKLkLKJJJJbHpPJJJJJJbHpPJJJJJJJKLkLKJJJJJJJPpS",
"=====-4k4-====xHpP======xHpP=======-4k4-=======PpS",
"333334IgI43333q8H9333333q8H933333334IgI433333339HS",
"wwwwwwerewwwwwy6tqwwwwwwy6tqwwwwwwwwerewwwwwwwwqtS",
"uuuuuqiriquuuup6asuuuuuup6asuuuuuuuqiriquuuuuuusaS",
"ppppp1dfd1pppper8#pppppper8#ppppppp1dfd1ppppppp#8S",
"aaaaaaghgaaaaaljf0aaaaaaljf0aaaaaaaaghgaaaaaaaa0fG",
"8rjr88l6l88rjrl66886zfl8866886zfl888l6l88rjr888866",
"bolsbcxcxcbslsbccxc4kivcxccxc4kivcxxxcxcbslsbcxxcc",
"*$tBNmmmmmNBtBNmmmm+,M=mmmmmm+,M=mmmmmmmNBtBNmmmmm",
"v767v>>>>>v767v>>>>C0VB>>>>>>C0VB>>>>>>>v767v>>>>>",
"w;r;w9www9w;r;w9wwwy6tq9wwwwwy6tq9wwwww9w;r;w9wwww",
"uereuwwwwwuereuwwwwp6tqwwwwwwp6tqwwwwwwwuereuwwwww",
"7ZAZ7777777ZAZ77777#r0p777777#r0p77777777ZAZ777777",
"Z8j8ZVVVVVZ8j8ZVVVVafrZVVVVVVafrZVVVVVVVZ8j8ZVVVVV",
"rfjfrrAfArrfjfrrAfAAjzrrrAArrAjzrrrrAfArrfjfrrrrAf",
"&&&&&&ere&&&&&&&ere&&&&&y6to&&&&&&&&ere&&&&&&&&otS",
"mmmmmNBtBNmmmmmNBtBNmmmmF,M=mmmmmmmNBtBNmmmmmmm=MD",
"XXXXX+u8u+XXXXX+u8u+XXXX$t#xXXXXXXX+u8u+XXXXXXXx#S",
"99999C;r;C99999C;r;C999976tu9999999C;r;C9999999utS",
"wwwwwwerewwwwwwwerewwwwwy6tqwwwwwwwwerewwwwwwwwqtS",
"qqqqqsVAVsqqqqqsVAVsqqqq1gk7qqqqqqqsVAVsqqqqqqq7kS",
"######afa#######afa#####ZA6e########afa########e6S",
"6666l6fSf6l666l6fSf6l66lrhjgl66666l6fSf6l66666lgjS",
"SSSSSSSGSSSSSSSSSGSSSSSSSUSSSSSSSSSSSGSSSSSSSSSSSG"
};
