/* XPM */
static char *result[] = {
/* columns rows colors chars-per-pixel */
"50 50 203 2 ",
"   c #2A2A29",
".  c #302F2E",
"X  c #31302E",
"o  c #353431",
"O  c #3A3632",
"+  c #3D3934",
"@  c #433B35",
"#  c #463D38",
"$  c #5D383C",
"%  c #61383C",
"&  c #6C3D3E",
"*  c #763E3C",
"=  c #7B3D3B",
"-  c #46423B",
";  c #4C443C",
":  c #56473E",
">  c #6A4C3C",
",  c #79453D",
"<  c #6B523E",
"1  c #78583F",
"2  c #5C3A43",
"3  c #673D41",
"4  c #584D41",
"5  c #5C5143",
"6  c #674644",
"7  c #6E4D41",
"8  c #744141",
"9  c #784D41",
"0  c #635544",
"q  c #695947",
"w  c #785845",
"e  c #695C50",
"r  c #76634F",
"t  c #833D36",
"y  c #863D36",
"u  c #8D4033",
"i  c #88453A",
"p  c #98493B",
"a  c #81503F",
"s  c #985639",
"d  c #A75D3A",
"f  c #BD5C3E",
"g  c #AB603C",
"h  c #B8653C",
"j  c #C15C3F",
"k  c #C2643F",
"l  c #C46C3E",
"z  c #D5633F",
"x  c #DB6C3E",
"c  c #CD753F",
"v  c #D8763E",
"b  c #894640",
"n  c #844B44",
"m  c #8C4C43",
"M  c #994E42",
"N  c #875345",
"B  c #945245",
"V  c #9B594A",
"C  c #A25344",
"Z  c #A45D44",
"A  c #AB5B43",
"S  c #A95847",
"D  c #AB5D4A",
"F  c #B15642",
"G  c #B55A44",
"H  c #BD5B42",
"J  c #B45C4A",
"K  c #BC5E49",
"L  c #836B51",
"P  c #866B55",
"I  c #937254",
"U  c #9D7654",
"Y  c #A36244",
"T  c #AB6345",
"R  c #AB6E43",
"E  c #B96447",
"W  c #B56942",
"Q  c #BA6B42",
"!  c #B57346",
"~  c #BB7445",
"^  c #A57E57",
"/  c #C05A41",
"(  c #D45F44",
")  c #C46444",
"_  c #CD6345",
"`  c #C46A44",
"'  c #C96D44",
"]  c #C46249",
"[  c #CC624A",
"{  c #C56E4C",
"}  c #D16344",
"|  c #D46C43",
" . c #D96C40",
".. c #C77547",
"X. c #D37A46",
"o. c #DB7C45",
"O. c #D2754A",
"+. c #DA744A",
"@. c #D57C4D",
"#. c #D87D4B",
"$. c #D77E52",
"%. c #E47B44",
"&. c #E8843E",
"*. c #F7873F",
"=. c #FA873E",
"-. c #F5893E",
";. c #F9883E",
":. c #AA8259",
">. c #B6885C",
",. c #BC8D63",
"<. c #DD8242",
"1. c #DB824E",
"2. c #D7884D",
"3. c #DB8451",
"4. c #D38B59",
"5. c #C6915C",
"6. c #DA9D5F",
"7. c #E38445",
"8. c #EC8543",
"9. c #ED8947",
"0. c #E5844D",
"q. c #EE8E4C",
"w. c #F48643",
"e. c #F98741",
"r. c #F68942",
"t. c #F88841",
"y. c #F68749",
"u. c #F18C4B",
"i. c #ED924D",
"p. c #F6934A",
"a. c #FA964B",
"s. c #F8994E",
"d. c #E08752",
"f. c #E38B54",
"g. c #EB8E56",
"h. c #F18F50",
"j. c #ED9151",
"k. c #EB9459",
"l. c #E49D5F",
"z. c #ED9A5B",
"x. c #F69851",
"c. c #F29D5D",
"v. c #E7A25F",
"b. c #FCA356",
"n. c #F4A15E",
"m. c #FCA55A",
"M. c #F6AA5E",
"N. c #FEAE5E",
"B. c #FFB05E",
"V. c #CA9461",
"C. c #D89C61",
"Z. c #E39964",
"A. c #EB9E66",
"S. c #F39C63",
"D. c #DFA163",
"F. c #ECA562",
"G. c #E9A368",
"H. c #F7A360",
"J. c #F9A561",
"K. c #F4AA61",
"L. c #FEAE61",
"P. c #FEB061",
"I. c #EDA77A",
"U. c #736C90",
"Y. c #797A9E",
"T. c #857FA1",
"R. c #7F82A2",
"E. c #8A86AB",
"W. c #928EA9",
"Q. c #9A99B3",
"!. c #A49FB3",
"~. c #A5A5BD",
"^. c #AAA7B8",
"/. c #F1B58E",
"(. c #F5C5A8",
"). c #F8C7B1",
"_. c #F2CBB2",
"`. c #F3CFBD",
"'. c #F3D1B4",
"]. c #F3D1BD",
"[. c #A6A6C4",
"{. c #B1AEC7",
"}. c #AAB0C8",
"|. c #B4B6C9",
" X c #B3B1CC",
".X c #C9C9DA",
"XX c #D3D2DF",
"oX c #F5CFC1",
"OX c #EED2C2",
"+X c #F5D2C2",
"@X c #F2DECE",
"#X c #EFDED8",
"$X c #CFD1E2",
"%X c #D4D4E5",
"&X c #D8D7E6",
"*X c #DCDBEB",
"=X c #E2DFED",
"-X c #E2E1EA",
";X c #F6E8E7",
":X c #E9EAF6",
">X c #F0EDF3",
",X c #F4F3F2",
"<X c #F2F1FA",
/* pixels */
"                                      . X X @ r ,.,.P 4 X X X X                                     ",
"                                        + e >.D.P.P.v.5.r - .                                       ",
"                                    O 0 :.G.L.L.P.P.P.K.F.>.r +                                     ",
"                                o 0 U v.M.L.L.N.B.B.P.P.B.B.v.>.w O                                 ",
"                            X ; I C.K.N.L.L.L.N.N.N.N.L.P.B.P.P.v.>.q O                             ",
"                        . ; a A ..z.L.L.L.L.L.L.L.L.P.N.B.B.P.B.L.M.D.:.q o                         ",
"                    . ; , Z H f H ) 3.A.L.L.N.N.L.N.N.B.N.N.B.L.L.B.B.B.G.^ q O                     ",
"                . ; w Z f / H H / / H ) $.z.L.L.N.N.L.N.L.P.L.B.L.L.B.M.N.N.6.:.0 X                 ",
"            X ; L 5.l.1.` H H j / / H H f ) 1.c.N.B.P.L.P.L.L.L.L.L.N.B.N.N.L.M.6.U 5 o             ",
"        X : I 5.M.B.L.L.n.3.` H H H / / f H f ` 1.c.P.B.B.N.N.B.L.B.L.L.N.L.L.N.B.M.6.^ 0 o         ",
"      ; P V.M.N.B.B.L.L.B.L.S.3.` f f / / / H H H ` 3.n.L.L.N.N.N.N.L.N.L.N.N.N.P.P.B.K.C.U 4 o     ",
"o ; L V.F.L.P.L.P.P.L.N.L.N.P.L.c.1.k f / / H H H H H ` d.S.L.L.B.N.N.L.L.B.N.N.P.P.P.P.N.M.C.I : X ",
"e >.F.P.L.N.N.N.N.B.N.N.N.B.N.N.L.L.c.3.) H H H H H j j H ' d.n.L.L.L.L.N.L.P.L.L.N.L.P.L.N.L.F.V.r ",
",.x.s.N.B.L.N.N.B.N.N.B.N.N.N.L.L.P.L.L.z.$.) H H / H f / f H ' f.n.L.N.B.N.N.N.P.L.L.P.L.L.L.c.3.{ ",
"Z.e.y.p.b.M.L.B.B.B.B.B.B.N.L.N.L.N.L.N.L.L.S.#.k f / / / H H f h ' f.J.L.P.B.B.P.L.L.L.L.S.0.| ' { ",
"A.e.e.e.r.p.b.N.N.N.B.N.N.N.N.B.L.N.N.N.N.L.N.L.k.@.) f E H / H H f f ' f.J.P.B.B.L.L.S.0.| } } } [ ",
"A.e.e.e.t.r.r.p.b.N.B.B.N.N.L.N.N.N.N.N.B.N.P.B.P.L.z.@.) f H H / / H H / ' f.J.P.S.0.| } } } } _ ( ",
"A.*.r.c.k.r.y.w.t.a.m.B.P.P.B.B.L.N.N.P.L.P.L.P.L.L.L.L.k.O.k f / H / / / / H { 3.O.} } } [ } [ z [ ",
"A.*.q.).`.I.g.*.*.r.r.a.b.N.N.L.L.L.N.P.L.L.L.L.L.L.L.N.L.L.k.O.E f / / H F p u F } } } } } } } _ [ ",
"A.r.j.+X,X;X`./.j.r.t.-.t.a.m.L.N.B.L.N.N.N.N.B.L.N.N.L.L.P.P.J.k.O.) G M u t t F } } } } } } } } [ ",
"A.=.y.+X$X$X:X;X'.I.k.t.*.t.r.s.m.N.P.B.L.B.B.L.N.L.N.P.L.N.N.P.L.S.{ y y y 3 t F } } } } } [ } } ( ",
"G.*.u.oX.X~. X%X:X;X`.G.9.t.t.r.r.s.m.L.L.P.B.L.N.L.N.B.L.L.L.H.g.+.J y = 3 y t G } } } } } } } } [ ",
"A.e.u.+X.X{.}.[. X%X>X_.p.t.r.e.t.r.y.s.m.B.P.L.N.B.B.P.P.H.g.+.} } H y y 3 y t F } } } } } } } } ] ",
"A.e.u.].&X{.[. X X[..X+Xh.r.*.t.e.e.t.r.p.s.m.L.B.P.P.H.j.o.} } ( ( H y = b 3 t F [ } } } } } } } ] ",
"A.=.u.+X*X*X$X|.&X*X&X+Xh.e.r.;.e.*.*.t.t.r.u.s.b.m.j.+.} } } } } } G t = = t y H } } } } } } } } [ ",
"G.=.u.`.!.~.%X-X:X<X<X].h.r.r.r.*.;.e.e.e.t.;.r.y.%.} ( } } } } } } G i = y p G [ } } } } } } } } ( ",
"A.=.u.`.W.E.Q.{.XX:X<X].h.r.r.e.e.*.;.r.r.t.*.r.w. .} } } } z _ } [ H u p G [ } } } } } } } } [ } [ ",
"A.e.q.].Q.R.W.E.Y.~.&XOXh.e.e.e.;.r.;.r.r.t.*.w.w. .} } } } } } } } _ / } } } } } } } [ } } } } } [ ",
"A.=.9._.XX|.Q.E.U.T.~.OXg.t.e.;.r.;.t.t.r.t.t.t.r. .} } _ } } } } } } } } } } } } } } } } [ } } } [ ",
"A.r.9.S./.@X*X|.Y.E.!.`.q.t.e.e.;.r.t.t.;.t.t.t.8. .} _ } } } } } } } } } } } } } } } } } } } } } [ ",
"A.y.;.e.p.G.(.#X.X}.^.oXj.e.t.e.t.-.t.t.t.t.r.r.w. .} } } } } } } } } } } } } } } } } } } } } } } [ ",
"A.=.=.y.t.;.y.G.(.#X=X+Xh.t.t.t.t.r.t.t.t.r.r.r.w. .} _ } } } } } } } } } } } } } } } } } } } } } [ ",
"A.r.r.e.w.9.r.t.y.I.(.(.h.e.e.y.e.r.t.t.t.t.t.r.w. ._ _ } } } } } } } _ _ _ } } } } } } } } } } } [ ",
"A.*.r.Q B E 8.*.e.=.u.x.r.e.r.e.e.t.t.t.t.t.t.*.w. ._ } } } } } [ } } } _ [ } } } } } } } } } [ } [ ",
"A.t.r.W 8 3 Y 7.-.=.e.r.t.y.y.e.e.t.t.t.t.t.t.r.w. .} } } _ } } } } } } } z } } } } } } } } } } } [ ",
"Z.w.t.u.{ a 9 ..-.v 0.e.t.r.r.r.t.t.t.*.t.r.r.r.w. ._ } } } } } } / C C ] } } } } } } } } } } } } [ ",
"4.-.=.&.h g O.o.7.s g 9.w.*.;.r.t.r.t.e.*.t.t.*.w. .} } } } } ] C , $ % C } } } } } } _ } } } _ } [ ",
"U 7.-.i.~ l r.r.r.g R c d 0.r.e.*.t.e.*.-.t.t.t.8. ._ _ _ } _ B & n 3 3 n C [ } } } } } [ _ _ } } T ",
"; Y 2.-.-.r.*.r.9.Q ..X.i O.y.c X.9.t.*.9.*.*.t.w. ._ _ } z E * * K F m % & G } } } _ _ } ( } ) V : ",
"  O < g &.9.-.r.<.d ` #.g 8.y.s , Y 7.*.t.t.t.*.w. ._ _ z } G b S [ } D 3 b ] } _ } _ z } ] D 7 O   ",
"      X < R <.r.*.o.W Z W 7.r.Y 2 3 ~ ;.t.e.t.t.w. .} } z E b B _ } H V = C _ _ } } } / D 7 #       ",
"          O < g <.r.w.o.h c r.#.n > ` r.e.r.t.t.w. .} ( ] p % m ] K * % i ] _ } } ] Z 7 +           ",
"              X < R <.*.*.&.*.0.Y W 8.=.e.e.t.t.w. .}  .E 8 & B i m & m E _ [ [ A w @               ",
"                  O < ! 7.8.t.7.h ` 8.e.t.r.r.t.w. .} } H * 2 3 8 J A ( z [ T 9 @                   ",
"                      O 7 ~ &.t.-.&.r.r.r.r.e.t.%. .( } _ A i m J _ } _ A 9 #                       ",
"                          - 1 ! 7.-.r.r.r.e.e.e.e. .} } } [ / [ z ( D 9 #                           ",
"                              # 1 ~ 7.-.;.r.e.r.%.+.} } } } } ] J N # .                             ",
"                                  - w ..7.w.e.e.y.| } } [ ( K N ;                                   ",
"                                      - N 2.&.-.*.x z [ E N ; X                                     ",
"                                        X : U 2.&.x E D 6 o                                         "
};
