/* XPM */
static char *result[] = {
/* columns rows colors chars-per-pixel */
"50 50 144 2 ",
"   c #050505",
".  c #0C0C0C",
"X  c #140806",
"o  c #150A0A",
"O  c #131313",
"+  c #181717",
"@  c #181817",
"#  c #161718",
"$  c #171819",
"%  c #1B1B1B",
"&  c #250A06",
"*  c #210F0A",
"=  c #2D0D0E",
"-  c #2B1213",
";  c #231F1E",
":  c #20201F",
">  c #1F2121",
",  c #242424",
"<  c #282827",
"1  c #252728",
"2  c #262929",
"3  c #2A2A29",
"4  c #2D2F30",
"5  c #2E3031",
"6  c #313435",
"7  c #343738",
"8  c #3A3D3E",
"9  c #60160E",
"0  c #791C1A",
"q  c #532217",
"w  c #6E2F21",
"e  c #702A2C",
"r  c #3C3F41",
"t  c #3E4142",
"y  c #304C77",
"u  c #38537C",
"i  c #414546",
"p  c #464B4C",
"a  c #494D4E",
"s  c #544846",
"d  c #4B4F51",
"f  c #5F4E50",
"g  c #4F5355",
"h  c #505456",
"j  c #525658",
"k  c #565B5D",
"l  c #585D5F",
"z  c #6F605D",
"x  c #5A5F61",
"c  c #5D6365",
"v  c #616669",
"b  c #656B6D",
"n  c #7E686A",
"m  c #676E70",
"M  c #696F72",
"N  c #6D7376",
"B  c #6F7679",
"V  c #70777A",
"C  c #747B7E",
"Z  c #9A2326",
"A  c #9E3225",
"S  c #973D2D",
"D  c #93393B",
"F  c #B32E27",
"G  c #B72B28",
"H  c #A03D31",
"J  c #BE393A",
"K  c #925042",
"L  c #9A5A4F",
"P  c #BA4442",
"I  c #A35C55",
"U  c #B95B5E",
"Y  c #986357",
"T  c #9A6A60",
"R  c #98776F",
"E  c #957E79",
"W  c #B96F71",
"Q  c #3F5981",
"!  c #385F8D",
"~  c #44648D",
"^  c #51678A",
"/  c #58779B",
"(  c #777E81",
")  c #787F82",
"_  c #6A7E9C",
"`  c #7A8285",
"'  c #7E8689",
"]  c #548AB9",
"[  c #7589A4",
"{  c #7596B6",
"}  c #689BC4",
"|  c #7AA1C2",
" . c #838B8E",
".. c #988B88",
"X. c #868E91",
"o. c #899195",
"O. c #8D969A",
"+. c #919A9E",
"@. c #A58E89",
"#. c #A1918E",
"$. c #A99799",
"%. c #8395AD",
"&. c #949EA2",
"*. c #9F9EA0",
"=. c #8C9EB4",
"-. c #97A0A4",
";. c #99A2A6",
":. c #9CA6AB",
">. c #9FA9AD",
",. c #9AA9B8",
"<. c #A3A0A0",
"1. c #A8A2A5",
"2. c #A2ABAE",
"3. c #B4A6AA",
"4. c #A3ADB1",
"5. c #A7B1B6",
"6. c #A9B2B5",
"7. c #ABB5BA",
"8. c #AEB9BE",
"9. c #B2B6B8",
"0. c #B0BBBF",
"q. c #92A9C0",
"w. c #88B5D5",
"e. c #96BCD7",
"r. c #AABBCA",
"t. c #B1BCC1",
"y. c #B6C1C6",
"u. c #B6C5CC",
"i. c #B9C5C9",
"p. c #BDC9CE",
"a. c #AAC4D5",
"s. c #B6C4D0",
"d. c #BDCBD4",
"f. c #BCCED8",
"g. c #C0C2C6",
"h. c #C2CDD2",
"j. c #C5D1D6",
"k. c #C5D3DB",
"l. c #C9D6DB",
"z. c #CCD9DF",
"x. c #CEDBE1",
"c. c #D1DEE4",
"v. c #D4E1E7",
"b. c #D5E2E8",
/* pixels */
"3 3 3 3 3 3 3 3 3 3 3 3 3 3 3 3 3 3 3 3 3 3 3 < 3 < < < < < 3 3 3 3 3 3 3 3 3 3 3 3 3 3 3 3 3 3 3 3 ",
"3 3 3 3 3 3 3 3 3 3 3 3 3 3 3 3 3 3 3 3 3 3 3 3 < % # @ , < 3 3 3 3 3 3 3 3 3 3 3 3 3 3 3 3 3 3 3 3 ",
"3 3 3 3 3 3 3 3 3 3 3 3 3 3 3 3 3 3 3 3 3 3 3 < , # O # % < < 3 3 3 3 3 3 3 3 3 3 3 3 3 3 3 3 3 3 3 ",
"3 3 3 3 3 3 3 3 3 3 3 3 3 3 3 3 3 3 3 3 < 3 < @ : p k h 4 @ , 3 3 3 3 3 3 3 3 3 3 3 3 3 3 3 3 3 3 3 ",
"3 3 3 3 3 3 3 3 3 3 3 3 3 3 3 3 3 3 3 3 3 < , : r  .:.X.8 . , 3 3 3 3 3 3 3 3 3 3 3 3 3 3 3 3 3 3 3 ",
"3 3 3 3 3 3 3 3 3 3 3 3 3 3 3 3 3 3 3 3 3 % + p  .t.t.o.8 o : 3 3 3 3 3 3 3 3 3 3 3 3 3 3 3 3 3 3 3 ",
"3 3 3 3 3 3 3 3 3 3 3 3 3 3 3 3 3 3 3 3 < + O b 8.y.&.l 3 # , 3 3 3 3 3 3 3 3 3 3 3 3 3 3 3 3 3 3 3 ",
"3 3 3 3 3 3 3 3 3 3 3 3 3 3 3 3 3 3 3 3 < % , ` i.;.x , % < < 3 3 3 3 3 3 3 3 3 3 3 3 3 3 3 3 3 3 3 ",
"3 3 3 3 3 3 3 3 3 3 3 3 3 3 3 3 3 3 3 , @ 3 c 4.7.c 3 > , < 3 3 3 3 3 3 3 3 3 3 3 3 3 3 3 3 3 3 3 3 ",
"3 3 3 3 3 3 3 3 3 3 3 3 3 3 3 3 3 3 3 : O 8 X.t.&.5 O , 2 3 3 3 3 3 3 3 3 3 3 3 3 3 3 3 3 3 3 3 3 3 ",
"3 3 3 3 3 3 3 3 3 3 3 3 3 3 3 3 3 3 3 : . r o.,.` 1 O , 3 3 3 3 3 3 3 3 3 3 3 3 3 3 3 3 3 3 3 3 3 3 ",
"3 3 3 3 3 3 3 3 3 3 3 3 3 3 3 3 3 3 3 > . 8 X.;.C > . < 3 3 3 3 3 3 3 3 3 3 3 3 3 3 3 3 3 3 3 3 3 3 ",
"3 3 3 3 3 3 3 3 3 3 3 3 3 3 3 3 3 < < @ . r X.;.C , . > < 3 3 3 3 3 3 3 3 3 3 3 3 3 3 3 3 3 3 3 3 3 ",
"3 3 3 3 3 3 3 3 3 3 3 3 3 3 3 < 3 < % .   r X.;.B ,   O % 3 3 3 3 3 3 3 3 3 3 3 3 3 3 3 3 3 3 3 3 3 ",
"3 3 3 3 3 3 3 3 3 3 3 3 3 3 3 3 < , , , , g o.;.` r , , % , < 3 3 3 3 3 3 3 3 3 3 3 3 3 3 3 3 3 3 3 ",
"3 3 3 3 3 3 3 3 3 3 3 3 3 3 3 < @ # p V ( X.&.&.&.` C m 7 O , 3 3 3 3 3 3 3 3 3 3 3 3 3 3 3 3 3 3 3 ",
"3 3 3 3 3 3 3 3 3 3 3 3 3 3 < @ . O b 7.t.0.0.t.0.t.t.>.p . O % < < 3 3 3 3 3 3 3 3 3 3 3 3 3 3 3 3 ",
"3 3 3 3 3 3 3 3 3 3 3 3 3 < : + O , V u.l.x.x.x.x.z.j.6.h # O @ , < < 3 3 3 3 3 3 3 3 3 3 3 3 3 3 3 ",
"3 3 3 3 3 3 3 3 3 3 3 3 < + ; p b V c N y.b.b.b.b.c.:.c b V c 8 % : 3 3 3 3 3 3 3 3 3 3 3 3 3 3 3 3 ",
"3 3 3 3 3 3 3 3 3 3 3 3 , O ; z $.7.m d  .>.>.>.2.:.B p  .9...s O @ < 3 3 3 3 3 3 3 3 3 3 3 3 3 3 3 ",
"3 3 3 3 3 3 3 3 3 3 3 3 , O * w Y <.2. .p 6 7 6 6 7 x &.2.#.K q X @ < 3 3 3 3 3 3 3 3 3 3 3 3 3 3 3 ",
"3 3 3 3 3 3 3 3 3 3 3 3 , O & 0 H T 1.2.b h h h g j ) 6.@.L A 9 o @ < 3 3 3 3 3 3 3 3 3 3 3 3 3 3 3 ",
"3 3 3 3 3 3 3 3 3 3 3 3 , O = Z F S R 4.y.p.p.p.p.p.t.*.Y A G 0 o @ 3 3 3 3 3 3 3 3 3 3 3 3 3 3 3 3 ",
"3 3 3 3 3 3 3 3 3 3 3 3 , O = Z P T ..4.l.b.b.b.b.v.p.;.E I J 0 o @ < 3 3 3 3 3 3 3 3 3 3 3 3 3 3 3 ",
"3 3 3 3 3 3 3 3 3 3 3 3 , O - D W 1.4.t.z.b.b.b.b.v.h.7.4.$.U e o @ 3 3 3 3 3 3 3 3 3 3 3 3 3 3 3 3 ",
"3 3 3 3 3 3 3 3 3 3 3 3 , O ; n 3.h.k.x.c.b.b.b.b.v.x.k.k.g.$.f O @ 3 3 3 3 3 3 3 3 3 3 3 3 3 3 3 3 ",
"3 3 3 3 3 3 3 3 3 3 3 3 , . 1 X.h.c.c.c.c.b.b.b.b.b.b.v.b.x.t.b O @ < 3 3 3 3 3 3 3 3 3 3 3 3 3 3 3 ",
"3 3 3 3 3 3 3 3 3 3 3 3 , O 4 ;.k.k.k.x.c.b.c.b.v.v.x.k.k.k.l.C @ @ 3 3 3 3 3 3 3 3 3 3 3 3 3 3 3 3 ",
"3 3 3 3 3 3 3 3 3 3 3 3 , O 4 >.r.[ _ %.d.b.b.b.b.c.r.[ _ %.s.) @ @ < 3 3 3 3 3 3 3 3 3 3 3 3 3 3 3 ",
"3 3 3 3 3 3 3 3 3 3 3 < > . 4 :.q.~ y ^ r.c.b.b.b.c.=.u y / r.) @ O : < 3 3 3 3 3 3 3 3 3 3 3 3 3 3 ",
"3 3 3 3 3 3 3 3 3 3 2 % .   4 :.e.] ! ^ r.x.x.x.c.x.=.Q ~ } a.) O   O : 3 3 3 3 3 3 3 3 3 3 3 3 3 3 ",
"3 3 3 3 3 3 3 3 3 3 3 > .   2 O.r.w.{ %.r.>.' ) X.7.,.{ | e.r.N O . @ < 3 3 3 3 3 3 3 3 3 3 3 3 3 3 ",
"3 3 3 3 3 3 3 3 3 3 3 < % . , M 5.f.f.d.5.B 7 1 t X.t.f.k.s.-.k O O > < 3 3 3 3 3 3 3 3 3 3 3 3 3 3 ",
"3 3 3 3 3 3 3 3 3 3 3 % O   . 6 m 5.l.x.d.>.' C X.8.j.x.d.;.j >   . O , 3 3 3 3 3 3 3 3 3 3 3 3 3 3 ",
"3 3 3 3 3 3 3 3 3 3 3 ; .   . : i B O.5.p.j.d.j.h.j.y.>.X.c 7 $     O , 3 3 3 3 3 3 3 3 3 3 3 3 3 3 ",
"3 3 3 3 3 3 3 3 3 3 3 < % . % j g 4 4 a X.2.2.2.2.>.V 8 3 7 c i O O : , 3 3 3 3 3 3 3 3 3 3 3 3 3 3 ",
"3 3 3 3 3 3 3 3 3 3 3 3 3 @ , p d 8 2 3 a k k k l k a t 8 g ' l O @ 3 3 3 3 3 3 3 3 3 3 3 3 3 3 3 3 ",
"3 3 3 3 3 3 3 3 3 3 3 3 3 < : # t C v t 2 > > , > , g ' o.X.X.j # @ < 3 3 3 3 3 3 3 3 3 3 3 3 3 3 3 ",
"3 3 3 3 3 3 3 3 3 3 3 3 3 3 : . 8 X.X.B c b C ` ` ` +.t.5. .g 3 % , < 3 3 3 3 3 3 3 3 3 3 3 3 3 3 3 ",
"3 3 3 3 3 3 3 3 3 3 3 3 3 3 : O 7 m ' ' C ' -.5.t.p.j.p.>.b , O , 3 3 3 3 3 3 3 3 3 3 3 3 3 3 3 3 3 ",
"3 3 3 3 3 3 3 3 3 3 3 3 3 3 3 : : 3 i a 5 2 5 g C ;.4.:.( p # O , 3 3 3 3 3 3 3 3 3 3 3 3 3 3 3 3 3 ",
"3 3 3 3 3 3 3 3 3 3 3 3 3 3 3 3 : # , > .   . t C >.;.C p 2 + @ 3 3 3 3 3 3 3 3 3 3 3 3 3 3 3 3 3 3 ",
"3 3 3 3 3 3 3 3 3 3 3 3 3 3 3 3 < , # .     . h ;.p.;.g , O ; < 3 3 3 3 3 3 3 3 3 3 3 3 3 3 3 3 3 3 ",
"3 3 3 3 3 3 3 3 3 3 3 3 3 3 3 3 3 < % @ # . O k 4.h.X.5 % % , 3 3 3 3 3 3 3 3 3 3 3 3 3 3 3 3 3 3 3 ",
"3 3 3 3 3 3 3 3 3 3 3 3 3 3 3 3 3 3 < 3 < @ # p ` &.c % ; < 3 < 3 3 3 3 3 3 3 3 3 3 3 3 3 3 3 3 3 3 ",
"3 3 3 3 3 3 3 3 3 3 3 3 3 3 3 3 3 3 3 3 3 , , , , 3 3 > , 3 3 3 3 3 3 3 3 3 3 3 3 3 3 3 3 3 3 3 3 3 ",
"3 3 3 3 3 3 3 3 3 3 3 3 3 3 3 3 3 3 3 3 < 3 < @ O O % 2 3 3 3 3 3 3 3 3 3 3 3 3 3 3 3 3 3 3 3 3 3 3 ",
"3 3 3 3 3 3 3 3 3 3 3 3 3 3 3 3 3 3 3 3 3 3 < , , < 2 2 3 3 3 3 3 3 3 3 3 3 3 3 3 3 3 3 3 3 3 3 3 3 ",
"3 3 3 3 3 3 3 3 3 3 3 3 3 3 3 3 3 3 3 3 3 3 3 3 3 3 3 3 3 3 3 3 3 3 3 3 3 3 3 3 3 3 3 3 3 3 3 3 3 3 ",
"3 3 3 3 3 3 3 3 3 3 3 3 3 3 3 3 3 3 3 3 3 3 3 3 3 3 3 3 3 3 3 3 3 3 3 3 3 3 3 3 3 3 3 3 3 3 3 3 3 3 "
};
